<svg xmlns="http://www.w3.org/2000/svg" viewBox="0 0 750 500"><g id="freepik--background-complete--inject-22"><path d="M673.73,325.84H493a5.87,5.87,0,0,1-5.86-5.87V56.7A5.87,5.87,0,0,1,493,50.84H673.73a5.87,5.87,0,0,1,5.87,5.86V320A5.87,5.87,0,0,1,673.73,325.84ZM493,51.09a5.61,5.61,0,0,0-5.61,5.61V320a5.62,5.62,0,0,0,5.61,5.62H673.73a5.62,5.62,0,0,0,5.62-5.62V56.7a5.62,5.62,0,0,0-5.62-5.61Z" style="fill:#e0e0e0"></path><path d="M465.31,325.84H284.56A5.87,5.87,0,0,1,278.7,320V56.7a5.87,5.87,0,0,1,5.86-5.86H465.31a5.87,5.87,0,0,1,5.86,5.86V320A5.87,5.87,0,0,1,465.31,325.84ZM284.56,51.09A5.62,5.62,0,0,0,279,56.7V320a5.62,5.62,0,0,0,5.61,5.62H465.31a5.62,5.62,0,0,0,5.61-5.62V56.7a5.62,5.62,0,0,0-5.61-5.61Z" style="fill:#e0e0e0"></path><path d="M257,325.84H76.27A5.87,5.87,0,0,1,70.4,320V56.7a5.87,5.87,0,0,1,5.87-5.86H257a5.87,5.87,0,0,1,5.86,5.86V320A5.87,5.87,0,0,1,257,325.84ZM76.27,51.09a5.62,5.62,0,0,0-5.62,5.61V320a5.62,5.62,0,0,0,5.62,5.62H257a5.62,5.62,0,0,0,5.61-5.62V56.7A5.61,5.61,0,0,0,257,51.09Z" style="fill:#e0e0e0"></path><rect y="386.91" width="750" height="0.12" style="fill:#e0e0e0"></rect><rect x="653.63" y="416.28" width="55.73" height="0.42" style="fill:#ebebeb"></rect><rect x="495.04" y="420.85" width="14.63" height="0.42" style="fill:#ebebeb"></rect><rect x="40.64" y="403.49" width="72.67" height="0.42" style="fill:#ebebeb"></rect><rect x="128.3" y="403.49" width="10.66" height="0.42" style="fill:#ebebeb"></rect><rect x="173.59" y="410.59" width="157.61" height="0.42" style="fill:#ebebeb"></rect><path d="M179.38,323.05s22.54-46.58,21-49.14,32.7-63.39,39.08-65.9c2.7-1.06,7.79-12.55,12.77-25.45,6.77-17.55,13.31-37.69,13.31-37.69a21.73,21.73,0,0,1,8.51-.06c5,.86,7.84-10.95,7.84-10.95l17.52-6,6.59,6L316,142s9.4,2.52,12.32,2.77,31.4-59.08,31.4-59.08,5.7-5.27,8.75-5.31S376.51,75,376.51,75l10.35-3.42s12.45,24.31,18.05,33.67,14.76,14.68,17.82,22.66,18,2.5,23.83,12.79,86.52,123.68,86.52,123.68c9.56,13.46,24.12,58.69,24.12,58.69Z" style="fill:#fafafa"></path><path d="M422.73,155.06c-4.07,6.87,2,32.54,2.92,36.21l-10.79-40.73,7.87-14.73L390.34,88.57v5.65s-7.29-13.76-10-13.8-7.52,19.31-7.52,19.31l-5.31-14s-18.92,22.65-17.71,29.6-14.25,28-13.18,29.54S306,191.71,306,191.71l9.94-37.9s-2.8-4.93-6.52-6.1-9.85-5-14.61-4.38,0,0-1.53,4.38-3.21,3.63-11.39,9.84-2-4.36-2-4.36l-8.78-1.25-18.84,30.62c6.77-17.55,13.31-37.69,13.31-37.69a21.73,21.73,0,0,1,8.51-.06c5,.86,7.84-10.95,7.84-10.95l17.52-6,6.59,6L316,142s9.4,2.52,12.32,2.77,31.4-59.08,31.4-59.08,5.7-5.27,8.75-5.31S376.51,75,376.51,75l10.35-3.42s12.45,24.31,18.05,33.67,14.76,14.68,17.82,22.66,18,2.5,23.83,12.79H433.74A94.79,94.79,0,0,0,422.73,155.06Z" style="fill:#f5f5f5"></path><path d="M135.39,138.93a4.56,4.56,0,0,0-4.57-4.57,4.66,4.66,0,0,0-1.31.19,9.32,9.32,0,0,0,.1-1.4,9.67,9.67,0,0,0-11.47-9.52,8.46,8.46,0,0,0-15.69,4.28h-.14a7.8,7.8,0,1,0,0,15.6H131A4.57,4.57,0,0,0,135.39,138.93Z" style="fill:#f0f0f0"></path><path d="M531.56,113.54A4.58,4.58,0,0,0,527,109a4.79,4.79,0,0,0-1.32.19,9.23,9.23,0,0,0,.11-1.4,9.68,9.68,0,0,0-9.69-9.68,9.51,9.51,0,0,0-1.78.16,8.46,8.46,0,0,0-15.69,4.28h-.14a7.8,7.8,0,0,0,0,15.6h28.64A4.58,4.58,0,0,0,531.56,113.54Z" style="fill:#f0f0f0"></path><path d="M582.72,114.74A10.2,10.2,0,0,1,595.85,105,21.6,21.6,0,0,1,621.2,80.61a18.87,18.87,0,0,1,35,9.54h.32a17.4,17.4,0,0,1,0,34.8h-63.9v0A10.19,10.19,0,0,1,582.72,114.74Z" style="fill:#f0f0f0"></path><path d="M170.87,97.44a8.7,8.7,0,0,1,11.21-8.34,18,18,0,0,1-.2-2.67A18.44,18.44,0,0,1,200.32,68a18.23,18.23,0,0,1,3.4.32,16.11,16.11,0,0,1,29.88,8.14h.26a14.85,14.85,0,1,1,0,29.7H179.33A8.7,8.7,0,0,1,170.87,97.44Z" style="fill:#f0f0f0"></path><path d="M329,95.39a2.84,2.84,0,0,0-2.84-2.84,2.81,2.81,0,0,0-.82.12,6.13,6.13,0,0,0,.07-.87,6,6,0,0,0-6-6,6.74,6.74,0,0,0-1.11.1,5.26,5.26,0,0,0-9.76,2.66h-.09a4.85,4.85,0,0,0,0,9.7h17.81A2.84,2.84,0,0,0,329,95.39Z" style="fill:#f0f0f0"></path><path d="M141.47,55.13a2.85,2.85,0,0,0-2.84-2.85,3.19,3.19,0,0,0-.82.12,4.94,4.94,0,0,0,.07-.87,6,6,0,0,0-6-6,5.8,5.8,0,0,0-1.11.11A5.26,5.26,0,0,0,121,48.28h-.09a4.85,4.85,0,0,0,0,9.7h17.81A2.85,2.85,0,0,0,141.47,55.13Z" style="fill:#f0f0f0"></path><path d="M433.85,81.72a2.85,2.85,0,0,1,2.85-2.84,2.74,2.74,0,0,1,.81.12,6.25,6.25,0,0,1-.06-.87,6,6,0,0,1,6-6,5.8,5.8,0,0,1,1.11.1,5.26,5.26,0,0,1,9.75,2.66h.09a4.85,4.85,0,0,1,0,9.7h-17.8A2.84,2.84,0,0,1,433.85,81.72Z" style="fill:#f0f0f0"></path><path d="M614,267c.12-2.67-27.65-32.45-27.54-33.22.23-1.75-4.28,4.79-4.93,3.08q-11.67-30.74-23.35-61.46c-1.74-4.57-3.64-9.34-8.79-12.91-3.7,4.51-3.53,9.73-3.83,14.73-.84,13.61-5.76,27-10.66,40.31a2.71,2.71,0,0,1-1.14,1.59c-2.37,1.38-5.93-.71-7.29-2.51-3.47-4.57-7-9.23-7.92-14.2-.5-2.63-.28-5.34-1.69-7.85-1.12-2-3.19-3.73-4.87-5.58-6.53-7.19-6.86-15.7-7.05-23.85-3.21-1.35-8-.41-10.45,1.41s-3.16,4.23-3.72,6.53a104.48,104.48,0,0,0-.6,46.31A19.36,19.36,0,0,1,476,214.1c-3.08-3-4.9-6.36-8.53-9.09-1.5-1.13-3.31-2.13-4.41-3.41-1.38-1.59-1.54-3.43-1.78-5.21a53.58,53.58,0,0,0-10.8-25c-1.39-1.83-4.74-4-7.48-2.77a3.33,3.33,0,0,0-1.83,2.18c-4.31,11.45-8.63,22.94-10.79,34.61-1.25,6.79-2.78,14.68-12.62,18.29C404.93,207,397.52,189,396.1,170.73c-.18-2.27-.34-4.7-2.59-6.55s-7.44-2.62-9.92-.87a4.35,4.35,0,0,0-1.66,2.87,171.26,171.26,0,0,0-3.79,21.57c-.54,4.87-.86,9.77-2.59,14.53-1.88,5.22-5.43,10.58-3,15.72-9.87,1.14-19.65-3.23-23.85-8.61s-4.15-11.54-4-17.47c0-.84,0-1.68.05-2.52.09-4.3.09-8.85-3.57-12.58-1.28-1.3-3-2.45-4.26-3.75-2.55-2.55-1.83-10.2-7.58-10.66-5.21-.42-6.36,4.47-7.37,6.62-2.6,5.53-4.85,11.76-5,17.53-.09,4.18.53,8.62-2.84,12.3a39.57,39.57,0,0,0-2.87,2.94c-3.22,4.36.78,10.75-6,13.32-5.73,2.18-13.4-1.21-15.44-5.05s-.92-8-2.65-11.93c-1.21-2.69-3.7-5.69-1.17-8,1.1-1,3.16-2,2.54-3.17-.47-.88-2.2-1.22-3.53-1.7-5-1.82-4.62-6.05-3.9-9.47s.35-7.77-5-9.12q-2.82,7.22-5.66,14.42c-.77,2-1.55,4-1.12,6,.49,2.36,2.61,4.52,3,6.89,1.21,7-12.46,12.24-13.13,19.28-.21,2.25.54,5.05-2.68,6.26a10.59,10.59,0,0,1-5.35.2c-5.2-1-8.58-4-10-7.15s-1.18-6.39-1.66-9.59a48.19,48.19,0,0,0-2.35-8.37q-3.84-11.06-7.66-22.11a9.46,9.46,0,0,0-10.95-7.29c-4.08,7.41,1.29,15.8-3,23.16-1.58,2.69-4.38,5.08-6.08,7.74-2,3.14-2.45,6.56-4.1,9.77-2.29,4.47-7,8.5-13.29,11.35a8.78,8.78,0,0,1-2.15.73c-4.05.66-6.21-2.69-6.66-5.15a50,50,0,0,0-9-20.22,6.6,6.6,0,0,0-4-2.9,10.4,10.4,0,0,0-3.44-.12c-9.77,1-14,7.9-14.6,13.73s.1,12.35-6.43,16.75c-1.78,1.2-4.07,2.2-5.19,3.65s-.88,3.23-.67,4.87c1.12,8.72-.84,17.44-.66,26.12.13,6.3-8.19,9.94-8.19,16.24,0,9.33-14.56,12.25-7.28,51.3l502.22-1C625.46,321.2,613.35,282,614,267Z" style="fill:#ebebeb"></path><rect x="412.1" y="246.05" width="7.68" height="76.89" style="fill:#e0e0e0;isolation:isolate"></rect><path d="M442.61,283.77s-33.4,7-53.34,0c1.59-5.6,4-11.33,4.87-17,1.19-8.2-1.34-17.12-2.13-25.36-.24-2.47-.47-5,.47-7.38s3.23-4.83,4.51-7.31c1.6-3.08,1.7-6.35,2.28-9.55,1.68-9.23,7.42-18,13.11-26.68a10.44,10.44,0,0,1,7.59,2.06,10.84,10.84,0,0,1,3.1,4.85l5.25,13.27c1.71,4.31,3.42,8.63,4.85,13a102.69,102.69,0,0,1,5.12,34.8c-.14,5-1.7,9.9.46,14.67C440.22,276.41,442.61,280.34,442.61,283.77Z" style="fill:#e0e0e0;isolation:isolate"></path><rect x="578.76" y="246.05" width="7.68" height="76.89" style="fill:#e0e0e0;isolation:isolate"></rect><path d="M609.43,284c-4,1.05-9.66,1.43-14.83,2-12.61,1.29-27.21,1.8-38.66-2.19.86-3,1.53-6.08,2.58-9.08,1.37-3.91,5-7.07,6.24-11.09,3-9.87.4-20,4-29.88,1.21-3.37,3.13-6.63,4.31-10,3.36-9.62.83-20.3,9.56-28.66a3.72,3.72,0,0,1,1.67-1,6,6,0,0,1,2.42,0c4.89.84,8.2,3.64,9.55,6.54s1.14,5.95,1.31,9a37.87,37.87,0,0,0,6.29,18.3c1.6,2.47,3.51,4.89,4.44,7.48,1.06,3,.81,6,1,9.07A34,34,0,0,0,612,256c1.24,2.9,2.87,6,.94,8.78-.73,1-1.94,2-2.51,3-1.25,2.32.64,4.78,2.44,7C617.34,280.16,614.71,282.64,609.43,284Z" style="fill:#e0e0e0;isolation:isolate"></path><rect x="356.54" y="246.05" width="7.68" height="76.89" style="fill:#e0e0e0;isolation:isolate"></rect><path d="M387.05,283.77s-33.4,7-53.33,0c0,0,4-14.11,4.06-14.25,1.76-6.19.33-12.46.45-18.73a114.1,114.1,0,0,1,3.06-24c2.87-12.12,7.73-24.05,13-35.9a3.91,3.91,0,0,1,2.15-2.35,6.41,6.41,0,0,1,7.95,3.45c8.55,15.57,3.41,32.77,10.93,48.52,1.39,2.92,3.2,5.76,4.42,8.7,3.26,7.9,1.35,16,3.9,23.93Z" style="fill:#e0e0e0;isolation:isolate"></path><rect x="300.99" y="246.05" width="7.68" height="76.89" style="fill:#e0e0e0;isolation:isolate"></rect><path d="M331.5,283.77s-33.4,7-53.34,0c1.7-6,3.75-12,5.13-18,2.06-9.09.15-19.18.18-28.43,0-2.65,0-5.34,1.2-7.9,1-2.25,2.95-4.33,4.27-6.53,2.91-4.84,2.91-10.09,3.72-15.2a54.21,54.21,0,0,1,8.32-21c3.06.36,4.12,2.58,4.54,4.41,1.77,7.8,2.75,15.69,6,23.32,1.63,3.78,3.82,7.47,5.57,11.23,5.57,12,5.22,24,7.21,36.17C324.65,263.76,332.65,283.53,331.5,283.77Z" style="fill:#e0e0e0;isolation:isolate"></path><rect x="467.65" y="246.05" width="7.68" height="76.89" style="fill:#e0e0e0;isolation:isolate"></rect><path d="M498.16,283.78s-33.39,7-53.33,0c1.25-4.39,3.79-9.21,3.88-13.65.06-3.06-1.67-5.69-.86-8.9,1.07-4.22,4.06-8.18,5.51-12.36,2.31-6.66.66-13.57,1.15-20.37.51-7.06,3.34-14,6.15-20.86l5.32-13a10.25,10.25,0,0,1,7.69,4.3c9,11.76,3.87,25.37,5,38.24a18.15,18.15,0,0,0,1.92,7.21c1.87,3.44,5.42,6.46,8.05,9.72,4.25,5.27,3.77,11.88,5.63,17.65Z" style="fill:#e0e0e0;isolation:isolate"></path><rect x="189.88" y="246.05" width="7.68" height="76.89" style="fill:#e0e0e0;isolation:isolate"></rect><path d="M220.38,283.77s-33.39,7-53.33,0c0,0,4-14.23,4.06-14.25,2-7,2-13.43,5-20.38,4.26-9.87,7.77-19.93,8.19-30.14.3-7.42-.31-15.92,9-20.92,6.46,2.91,8,8.25,8.06,13s-.62,9.85,3.07,14.13c1.39,1.61,3.37,3.05,4.51,4.73,2.23,3.3.93,7,1.5,10.55.69,4.37,4.24,8.45,4.78,12.82.44,3.55-1.13,7.06-1.78,10.6-.84,4.57,1.86,7.27,4.19,11.31C219.17,277.9,219.5,281,220.38,283.77Z" style="fill:#e0e0e0;isolation:isolate"></path><rect x="134.32" y="246.05" width="7.68" height="76.89" style="fill:#e0e0e0;isolation:isolate"></rect><path d="M164.83,283.77s-33.39,7-53.34,0c3.88-13.63,9.89-27.71,8.28-41.59-.45-3.91-1.2-8.29,3-11.32,3-2.16,8.09-3.16,10.61-5.53,2.26-2.12,2-4.81,1.71-7.31a65.94,65.94,0,0,1,.48-16.6,5.47,5.47,0,0,1,5.46-5,8.41,8.41,0,0,1,4.62,1.43c4.09,2.63,5.17,6.42,5.19,10S150,215,151,218.51c1,3.79,4.1,7.3,5.33,11.06,1.14,3.51.65,7.12.52,10.69-.29,8.3,3,16.36,2.74,24.58C159.4,271.09,162.86,277.63,164.83,283.77Z" style="fill:#e0e0e0;isolation:isolate"></path><rect x="245.43" y="246.05" width="7.68" height="76.89" style="fill:#e0e0e0;isolation:isolate"></rect><path d="M275.94,283.78s-33.35,6.94-53.3,0c-1.7-.59,4.31-14.68,4.69-16.6,3.22-16.31,5.15-32.78,7.81-49.14a32.18,32.18,0,0,1,2.13-8.31,40.59,40.59,0,0,1,4-6.48l7.66-10.85a6.44,6.44,0,0,1,5.23,4.79c2,6.55.82,13.3,2.31,19.89,2.95,13,16.26,25,15.14,38.17-.46,5.4-1,10.74.33,16.11C272.17,272.27,276.46,283.67,275.94,283.78Z" style="fill:#e0e0e0;isolation:isolate"></path></g><g id="freepik--Shadow--inject-22"><path d="M635.07,460.31c0,3.39-117.57,6.14-262.6,6.14s-262.6-2.75-262.6-6.14,117.57-6.13,262.6-6.13S635.07,456.93,635.07,460.31Z" style="fill:#f5f5f5"></path></g><g id="freepik--Trees--inject-22"><path d="M36.63,325.56s19.39-7.94,27.81-8.11,63.75,7,88.87,0,79.73.16,98.54,0S302.29,311.36,322,315s-2.68,3.75,46.14.9,35.88.1,66.79,0,24.19,2.48,52.46,1.56,34.17-7.45,63.79-1.1,28.61,5.17,51.25,1.1,25.38-6.77,38.67-3.84,14.67,1.8,27.27,2.74,38.35,3.1,45,9.21Z" style="fill:#263238"></path><path d="M635.51,281.69l-9.75,1.4s-.06,27.31-.41,30.68-5,6.72-5,6.72h18.32C633.91,312.37,635.51,281.69,635.51,281.69Z" style="fill:#263238"></path><path d="M663.74,276.8c.38-2.26.77-4.53,1.15-6.79a2,2,0,0,0-.37-2,1.24,1.24,0,0,0-.66-.32c-1.49-.25-2.58,1.54-4,1.53-.86-1.29.09-3.12,1.1-4.25s2.29-2.62,1.81-4.25a2.4,2.4,0,0,0-1.6-1.6,5.15,5.15,0,0,0-3.59.67c-.74-2.07,1.54-3.69,2.89-5.48.82-1.09,0-2.78-1.22-2.55l-4.62.87a2.36,2.36,0,0,1-1.34-.12c-1.72-.73-1.36-3.06-.58-4.57.31-.58.67-1.17,1-1.77a1.71,1.71,0,0,0-1.17-2.53,11.66,11.66,0,0,0-3,.24c-1-1.93.86-4.14,2.54-5.24a11.28,11.28,0,0,0,2.32-1.91,2.08,2.08,0,0,0-1-3.37l-3.33-.59a2.1,2.1,0,0,1-.85-.35c-1.25-.91-.6-2.71.25-3.76.26-.32.54-.63.8-1a1.4,1.4,0,0,0-.81-2.26l-1-.06a23.73,23.73,0,0,0,1.5-4.27c.45-1.8-.93-3.5-2.51-3.09l-2.12.56a1.36,1.36,0,0,1-.82,0,1.19,1.19,0,0,1-.63-.91c-.57-2.76,3.93-4.23,3.43-7-.36-2-2.82-2-4.56-1.58a38.57,38.57,0,0,1,1.19-7.65,1.05,1.05,0,0,0-.9-1.4l-2.61.05a1,1,0,0,1-.79-.21,1.21,1.21,0,0,1-.25-.73c-.09-1.51.85-2.81,1.23-4.25s-.44-3.57-1.68-3.12c-1.66-.79-2.81.41-3.29-1.33a2.92,2.92,0,0,1-.09-1c.17-1.95,1.79-3.16,2.19-5a7.91,7.91,0,0,0-.24-3.34,1.81,1.81,0,0,0-.44-1,2.33,2.33,0,0,0-.94-.32c-1.58-.48-1.7-3-1.26-4.86a9.76,9.76,0,0,0,.41-4.31,1.16,1.16,0,0,0-1.42-.91,5.66,5.66,0,0,0-1.85,1c-.82-1.74-.32-4-1.24-5.72a2.42,2.42,0,0,0-.91-1c-1.4-.82-2.59.61-2.78,2.07a8.5,8.5,0,0,0,.48,3.42c-.87-.5-2,.25-2.35,1.27a7.22,7.22,0,0,0-.19,3.31l.6,6.24c-.66-1.17-2.39-.72-3,.49a6.39,6.39,0,0,0-.16,4.11,13.51,13.51,0,0,1,.1,5.59c-2,1-2.16-1.58-3.74-1.27a2,2,0,0,0-1.47,1.77c-.38,2.42.38,4.76.31,7-1.52-.53-3.22,1.38-2.81,3.16.25,1.08,1.09,1.9,1.14,3.08a1.44,1.44,0,0,1-.53,1.25c-.83.6-1.35-.74-2.22,0a1.64,1.64,0,0,0-.52,1.34c.08,1.43,1.21,2.34,1.36,3.75a1.76,1.76,0,0,1-.44,1.39c-.52.54-1,.16-1.47.1-1.14-.14-1.92,1.5-1.72,2.81a11.39,11.39,0,0,0,1.62,3.5,4.26,4.26,0,0,1,.48,3.76c-1-.81-1.43-2.29-2.52-3a1.5,1.5,0,0,0-1.37-.18c-.94.41-1,1.71-1,2.79a19.63,19.63,0,0,0,2.11,7.7c-1.37,1.26-2.92-2.91-4.53-1.8a1.79,1.79,0,0,0-.67,1.59A21.92,21.92,0,0,0,608.14,240a1.92,1.92,0,0,0-2.06-.68,2.42,2.42,0,0,0-1.49,2.31c0,1.48,1.12,2.57,1.82,3.8s.66,3.42-.59,3.66-1.93-1.84-3.08-2.57c-1.36-.86-3.14.61-3.45,2.38a8.4,8.4,0,0,0,1.18,5.11,15,15,0,0,1,1.93,4.87l-.49.32c-1.93-1.77-4,.35-3.35,2.42a9.17,9.17,0,0,1,.56,2.63l-.06,1.34c0,2.23-1.84,4.22-3.77,4.15a3.68,3.68,0,0,0-3.8,2c-.78,1.87-.11,4.43,1.57,5.3a4.4,4.4,0,0,1,1.29.95c1.52,1.7.33,2.84-.06,4.19a4.2,4.2,0,0,0,1.79,4.48,5.74,5.74,0,0,0,4.5.46,6.85,6.85,0,0,1,2.94-.44c1.83.88.41,3.22,2.15,5.39a4.47,4.47,0,0,0,1.82,1.22,3.94,3.94,0,0,0,4.62-1.56,5.2,5.2,0,0,1,1.86-1.53c.78-.33,1.59.38,1.57,1.34a8.3,8.3,0,0,0,1,4.74,2.83,2.83,0,0,0,2.36,1.43c1.84-.05,2.76-2.2,3.52-4,.93-2.23,2.7-4.79,5.19-2.4a4.3,4.3,0,0,1,1.14,2.29c.37,1.91,2.42,4.66,4.08,3.45,1.36-1,1-3.84,2.93-4.3a2.17,2.17,0,0,1,1.68.36c2.06,1.38,2.36,4.65,4.64,5.71a1.87,1.87,0,0,0,2.31-.58c.67-.9.26-1.78.19-2.67a4.58,4.58,0,0,1,3-4.42c1.66-.65,3.46-.52,5.2-.75a5.53,5.53,0,0,0,4.48-2.74c.33-.65.49-1.4.84-2,1-1.84,3.18-2.14,5-2.41s4.07-1,4.6-3.13C668.38,277.68,665.47,275.31,663.74,276.8Z" style="fill:#407BFF"></path><g style="opacity:0.7000000000000001"><path d="M663.74,276.8c.38-2.26.77-4.53,1.15-6.79a2,2,0,0,0-.37-2,1.24,1.24,0,0,0-.66-.32c-1.49-.25-2.58,1.54-4,1.53-.86-1.29.09-3.12,1.1-4.25s2.29-2.62,1.81-4.25a2.4,2.4,0,0,0-1.6-1.6,5.15,5.15,0,0,0-3.59.67c-.74-2.07,1.54-3.69,2.89-5.48.82-1.09,0-2.78-1.22-2.55l-4.62.87a2.36,2.36,0,0,1-1.34-.12c-1.72-.73-1.36-3.06-.58-4.57.31-.58.67-1.17,1-1.77a1.71,1.71,0,0,0-1.17-2.53,11.66,11.66,0,0,0-3,.24c-1-1.93.86-4.14,2.54-5.24a11.28,11.28,0,0,0,2.32-1.91,2.08,2.08,0,0,0-1-3.37l-3.33-.59a2.1,2.1,0,0,1-.85-.35c-1.25-.91-.6-2.71.25-3.76.26-.32.54-.63.8-1a1.4,1.4,0,0,0-.81-2.26l-1-.06a23.73,23.73,0,0,0,1.5-4.27c.45-1.8-.93-3.5-2.51-3.09l-2.12.56a1.36,1.36,0,0,1-.82,0,1.19,1.19,0,0,1-.63-.91c-.57-2.76,3.93-4.23,3.43-7-.36-2-2.82-2-4.56-1.58a38.57,38.57,0,0,1,1.19-7.65,1.05,1.05,0,0,0-.9-1.4l-2.61.05a1,1,0,0,1-.79-.21,1.21,1.21,0,0,1-.25-.73c-.09-1.51.85-2.81,1.23-4.25s-.44-3.57-1.68-3.12c-1.66-.79-2.81.41-3.29-1.33a2.92,2.92,0,0,1-.09-1c.17-1.95,1.79-3.16,2.19-5a7.91,7.91,0,0,0-.24-3.34,1.81,1.81,0,0,0-.44-1,2.33,2.33,0,0,0-.94-.32c-1.58-.48-1.7-3-1.26-4.86a9.76,9.76,0,0,0,.41-4.31,1.16,1.16,0,0,0-1.42-.91,5.66,5.66,0,0,0-1.85,1c-.82-1.74-.32-4-1.24-5.72a2.42,2.42,0,0,0-.91-1c-1.4-.82-2.59.61-2.78,2.07a8.5,8.5,0,0,0,.48,3.42c-.87-.5-2,.25-2.35,1.27a7.22,7.22,0,0,0-.19,3.31l.6,6.24c-.66-1.17-2.39-.72-3,.49a6.39,6.39,0,0,0-.16,4.11,13.51,13.51,0,0,1,.1,5.59c-2,1-2.16-1.58-3.74-1.27a2,2,0,0,0-1.47,1.77c-.38,2.42.38,4.76.31,7-1.52-.53-3.22,1.38-2.81,3.16.25,1.08,1.09,1.9,1.14,3.08a1.44,1.44,0,0,1-.53,1.25c-.83.6-1.35-.74-2.22,0a1.64,1.64,0,0,0-.52,1.34c.08,1.43,1.21,2.34,1.36,3.75a1.76,1.76,0,0,1-.44,1.39c-.52.54-1,.16-1.47.1-1.14-.14-1.92,1.5-1.72,2.81a11.39,11.39,0,0,0,1.62,3.5,4.26,4.26,0,0,1,.48,3.76c-1-.81-1.43-2.29-2.52-3a1.5,1.5,0,0,0-1.37-.18c-.94.41-1,1.71-1,2.79a19.63,19.63,0,0,0,2.11,7.7c-1.37,1.26-2.92-2.91-4.53-1.8a1.79,1.79,0,0,0-.67,1.59A21.92,21.92,0,0,0,608.14,240a1.92,1.92,0,0,0-2.06-.68,2.42,2.42,0,0,0-1.49,2.31c0,1.48,1.12,2.57,1.82,3.8s.66,3.42-.59,3.66-1.93-1.84-3.08-2.57c-1.36-.86-3.14.61-3.45,2.38a8.4,8.4,0,0,0,1.18,5.11,15,15,0,0,1,1.93,4.87l-.49.32c-1.93-1.77-4,.35-3.35,2.42a9.17,9.17,0,0,1,.56,2.63l-.06,1.34c0,2.23-1.84,4.22-3.77,4.15a3.68,3.68,0,0,0-3.8,2c-.78,1.87-.11,4.43,1.57,5.3a4.4,4.4,0,0,1,1.29.95c1.52,1.7.33,2.84-.06,4.19a4.2,4.2,0,0,0,1.79,4.48,5.74,5.74,0,0,0,4.5.46,6.85,6.85,0,0,1,2.94-.44c1.83.88.41,3.22,2.15,5.39a4.47,4.47,0,0,0,1.82,1.22,3.94,3.94,0,0,0,4.62-1.56,5.2,5.2,0,0,1,1.86-1.53c.78-.33,1.59.38,1.57,1.34a8.3,8.3,0,0,0,1,4.74,2.83,2.83,0,0,0,2.36,1.43c1.84-.05,2.76-2.2,3.52-4,.93-2.23,2.7-4.79,5.19-2.4a4.3,4.3,0,0,1,1.14,2.29c.37,1.91,2.42,4.66,4.08,3.45,1.36-1,1-3.84,2.93-4.3a2.17,2.17,0,0,1,1.68.36c2.06,1.38,2.36,4.65,4.64,5.71a1.87,1.87,0,0,0,2.31-.58c.67-.9.26-1.78.19-2.67a4.58,4.58,0,0,1,3-4.42c1.66-.65,3.46-.52,5.2-.75a5.53,5.53,0,0,0,4.48-2.74c.33-.65.49-1.4.84-2,1-1.84,3.18-2.14,5-2.41s4.07-1,4.6-3.13C668.38,277.68,665.47,275.31,663.74,276.8Z" style="fill:#fff"></path></g><path d="M401.89,279.05l-10.42,1.49s-.06,29.18-.43,32.77-5.35,7.18-5.35,7.18h19.57C400.18,311.81,401.89,279.05,401.89,279.05Z" style="fill:#263238"></path><path d="M432,273.83q.63-3.63,1.24-7.26a2.1,2.1,0,0,0-.4-2.12,1.47,1.47,0,0,0-.71-.34c-1.59-.27-2.75,1.65-4.28,1.64-.91-1.38.1-3.34,1.17-4.54s2.46-2.8,1.94-4.54a2.55,2.55,0,0,0-1.71-1.71,5.54,5.54,0,0,0-3.83.72c-.8-2.21,1.65-3.94,3.08-5.85.88-1.17,0-3-1.3-2.73l-4.93.93a2.45,2.45,0,0,1-1.44-.13c-1.83-.78-1.45-3.26-.61-4.87.33-.63.72-1.26,1-1.9a1.85,1.85,0,0,0-1.26-2.71,12.75,12.75,0,0,0-3.2.27c-1.05-2.07.92-4.42,2.71-5.6a12.3,12.3,0,0,0,2.48-2c1.06-1.22.46-3.34-1-3.6l-3.56-.63a2.19,2.19,0,0,1-.91-.37c-1.34-1-.64-2.9.27-4,.27-.34.57-.68.85-1a1.5,1.5,0,0,0-.86-2.42l-1.09-.06a24.67,24.67,0,0,0,1.61-4.56c.48-1.93-1-3.74-2.68-3.3l-2.26.59a1.36,1.36,0,0,1-.89,0,1.31,1.31,0,0,1-.67-1c-.6-2.95,4.21-4.51,3.67-7.48-.39-2.16-3-2.18-4.87-1.68a40,40,0,0,1,1.27-8.17,1.13,1.13,0,0,0-1-1.5l-2.78.06a1.07,1.07,0,0,1-.85-.23A1.28,1.28,0,0,1,406,191c-.1-1.61.91-3,1.31-4.54s-.47-3.82-1.79-3.33c-1.77-.84-3,.44-3.51-1.42a3,3,0,0,1-.1-1c.18-2.09,1.92-3.39,2.34-5.34a8.33,8.33,0,0,0-.26-3.57,1.85,1.85,0,0,0-.47-1.06,2.34,2.34,0,0,0-1-.34c-1.69-.51-1.81-3.25-1.35-5.2a10.16,10.16,0,0,0,.44-4.59,1.24,1.24,0,0,0-1.52-1,5.85,5.85,0,0,0-2,1c-.87-1.86-.35-4.27-1.33-6.12a2.59,2.59,0,0,0-1-1.07c-1.5-.88-2.77.65-3,2.21a9.29,9.29,0,0,0,.51,3.65c-.92-.53-2.09.26-2.51,1.36a7.66,7.66,0,0,0-.2,3.54q.31,3.33.65,6.66c-.72-1.25-2.56-.78-3.22.52a6.84,6.84,0,0,0-.18,4.39c.33,1.61.63,4.39.11,6-2.09,1.11-2.31-1.69-4-1.36a2.17,2.17,0,0,0-1.57,1.89c-.41,2.59.41,5.09.33,7.53-1.62-.57-3.44,1.47-3,3.37.27,1.16,1.16,2,1.21,3.29a1.54,1.54,0,0,1-.56,1.34c-.89.64-1.44-.8-2.37,0a1.75,1.75,0,0,0-.56,1.44c.09,1.53,1.3,2.49,1.45,4a1.85,1.85,0,0,1-.46,1.48c-.56.58-1,.18-1.57.11-1.22-.15-2.06,1.6-1.84,3a12,12,0,0,0,1.73,3.74,4.56,4.56,0,0,1,.51,4c-1.05-.86-1.52-2.45-2.69-3.2a1.54,1.54,0,0,0-1.46-.19c-1,.43-1.13,1.82-1.06,3a21,21,0,0,0,2.25,8.22c-1.46,1.35-3.11-3.11-4.84-1.92a1.91,1.91,0,0,0-.71,1.7,23.37,23.37,0,0,0,3.82,11.42,2.09,2.09,0,0,0-2.21-.73,2.61,2.61,0,0,0-1.59,2.47c0,1.58,1.2,2.74,1.94,4.06s.71,3.65-.63,3.91-2.05-2-3.28-2.75c-1.46-.92-3.35.66-3.69,2.54a8.94,8.94,0,0,0,1.26,5.46,16,16,0,0,1,2.06,5.2L366,255c-2.06-1.89-4.27.38-3.58,2.59a9.73,9.73,0,0,1,.59,2.81l-.06,1.43c0,2.38-2,4.51-4,4.44a3.92,3.92,0,0,0-4.06,2.17c-.84,2-.12,4.72,1.68,5.66a4.73,4.73,0,0,1,1.37,1c1.63,1.82.35,3-.06,4.48a4.5,4.5,0,0,0,1.91,4.79,6.11,6.11,0,0,0,4.81.49,7.29,7.29,0,0,1,3.14-.47c1.95.94.43,3.44,2.3,5.76a4.75,4.75,0,0,0,1.94,1.3,4.22,4.22,0,0,0,4.93-1.67,5.69,5.69,0,0,1,2-1.63c.83-.35,1.7.41,1.68,1.43a8.81,8.81,0,0,0,1.06,5.06,3,3,0,0,0,2.52,1.53c2-.05,3-2.35,3.77-4.28,1-2.39,2.88-5.12,5.54-2.56a4.53,4.53,0,0,1,1.21,2.44c.4,2,2.59,5,4.36,3.69,1.46-1.07,1.05-4.11,3.13-4.6a2.33,2.33,0,0,1,1.8.39c2.2,1.47,2.52,5,4.95,6.09a2,2,0,0,0,2.47-.62c.71-1,.28-1.9.2-2.85a4.9,4.9,0,0,1,3.23-4.72c1.77-.69,3.7-.55,5.55-.8a5.94,5.94,0,0,0,4.79-2.92c.35-.7.52-1.5.9-2.17,1.08-2,3.39-2.29,5.39-2.58s4.34-1.1,4.91-3.35C437,274.76,433.89,272.23,432,273.83Z" style="fill:#407BFF"></path><g style="opacity:0.5"><path d="M432,273.83q.63-3.63,1.24-7.26a2.1,2.1,0,0,0-.4-2.12,1.47,1.47,0,0,0-.71-.34c-1.59-.27-2.75,1.65-4.28,1.64-.91-1.38.1-3.34,1.17-4.54s2.46-2.8,1.94-4.54a2.55,2.55,0,0,0-1.71-1.71,5.54,5.54,0,0,0-3.83.72c-.8-2.21,1.65-3.94,3.08-5.85.88-1.17,0-3-1.3-2.73l-4.93.93a2.45,2.45,0,0,1-1.44-.13c-1.83-.78-1.45-3.26-.61-4.87.33-.63.72-1.26,1-1.9a1.85,1.85,0,0,0-1.26-2.71,12.75,12.75,0,0,0-3.2.27c-1.05-2.07.92-4.42,2.71-5.6a12.3,12.3,0,0,0,2.48-2c1.06-1.22.46-3.34-1-3.6l-3.56-.63a2.19,2.19,0,0,1-.91-.37c-1.34-1-.64-2.9.27-4,.27-.34.57-.68.85-1a1.5,1.5,0,0,0-.86-2.42l-1.09-.06a24.67,24.67,0,0,0,1.61-4.56c.48-1.93-1-3.74-2.68-3.3l-2.26.59a1.36,1.36,0,0,1-.89,0,1.31,1.31,0,0,1-.67-1c-.6-2.95,4.21-4.51,3.67-7.48-.39-2.16-3-2.18-4.87-1.68a40,40,0,0,1,1.27-8.17,1.13,1.13,0,0,0-1-1.5l-2.78.06a1.07,1.07,0,0,1-.85-.23A1.28,1.28,0,0,1,406,191c-.1-1.61.91-3,1.31-4.54s-.47-3.82-1.79-3.33c-1.77-.84-3,.44-3.51-1.42a3,3,0,0,1-.1-1c.18-2.09,1.92-3.39,2.34-5.34a8.33,8.33,0,0,0-.26-3.57,1.85,1.85,0,0,0-.47-1.06,2.34,2.34,0,0,0-1-.34c-1.69-.51-1.81-3.25-1.35-5.2a10.16,10.16,0,0,0,.44-4.59,1.24,1.24,0,0,0-1.52-1,5.85,5.85,0,0,0-2,1c-.87-1.86-.35-4.27-1.33-6.12a2.59,2.59,0,0,0-1-1.07c-1.5-.88-2.77.65-3,2.21a9.29,9.29,0,0,0,.51,3.65c-.92-.53-2.09.26-2.51,1.36a7.66,7.66,0,0,0-.2,3.54q.31,3.33.65,6.66c-.72-1.25-2.56-.78-3.22.52a6.84,6.84,0,0,0-.18,4.39c.33,1.61.63,4.39.11,6-2.09,1.11-2.31-1.69-4-1.36a2.17,2.17,0,0,0-1.57,1.89c-.41,2.59.41,5.09.33,7.53-1.62-.57-3.44,1.47-3,3.37.27,1.16,1.16,2,1.21,3.29a1.54,1.54,0,0,1-.56,1.34c-.89.64-1.44-.8-2.37,0a1.75,1.75,0,0,0-.56,1.44c.09,1.53,1.3,2.49,1.45,4a1.85,1.85,0,0,1-.46,1.48c-.56.58-1,.18-1.57.11-1.22-.15-2.06,1.6-1.84,3a12,12,0,0,0,1.73,3.74,4.56,4.56,0,0,1,.51,4c-1.05-.86-1.52-2.45-2.69-3.2a1.54,1.54,0,0,0-1.46-.19c-1,.43-1.13,1.82-1.06,3a21,21,0,0,0,2.25,8.22c-1.46,1.35-3.11-3.11-4.84-1.92a1.91,1.91,0,0,0-.71,1.7,23.37,23.37,0,0,0,3.82,11.42,2.09,2.09,0,0,0-2.21-.73,2.61,2.61,0,0,0-1.59,2.47c0,1.58,1.2,2.74,1.94,4.06s.71,3.65-.63,3.91-2.05-2-3.28-2.75c-1.46-.92-3.35.66-3.69,2.54a8.94,8.94,0,0,0,1.26,5.46,16,16,0,0,1,2.06,5.2L366,255c-2.06-1.89-4.27.38-3.58,2.59a9.73,9.73,0,0,1,.59,2.81l-.06,1.43c0,2.38-2,4.51-4,4.44a3.92,3.92,0,0,0-4.06,2.17c-.84,2-.12,4.72,1.68,5.66a4.73,4.73,0,0,1,1.37,1c1.63,1.82.35,3-.06,4.48a4.5,4.5,0,0,0,1.91,4.79,6.11,6.11,0,0,0,4.81.49,7.29,7.29,0,0,1,3.14-.47c1.95.94.43,3.44,2.3,5.76a4.75,4.75,0,0,0,1.94,1.3,4.22,4.22,0,0,0,4.93-1.67,5.69,5.69,0,0,1,2-1.63c.83-.35,1.7.41,1.68,1.43a8.81,8.81,0,0,0,1.06,5.06,3,3,0,0,0,2.52,1.53c2-.05,3-2.35,3.77-4.28,1-2.39,2.88-5.12,5.54-2.56a4.53,4.53,0,0,1,1.21,2.44c.4,2,2.59,5,4.36,3.69,1.46-1.07,1.05-4.11,3.13-4.6a2.33,2.33,0,0,1,1.8.39c2.2,1.47,2.52,5,4.95,6.09a2,2,0,0,0,2.47-.62c.71-1,.28-1.9.2-2.85a4.9,4.9,0,0,1,3.23-4.72c1.77-.69,3.7-.55,5.55-.8a5.94,5.94,0,0,0,4.79-2.92c.35-.7.52-1.5.9-2.17,1.08-2,3.39-2.29,5.39-2.58s4.34-1.1,4.91-3.35C437,274.76,433.89,272.23,432,273.83Z" style="fill:#fff"></path></g><path d="M100.89,287.15l-8.75,1.25s-.06,24.33-.37,27.33-4.49,6-4.49,6h16.45C99.46,314.48,100.89,287.15,100.89,287.15Z" style="fill:#263238"></path><path d="M126.24,282.8c.35-2,.69-4,1-6.05A1.75,1.75,0,0,0,127,275a1.24,1.24,0,0,0-.6-.29c-1.34-.22-2.31,1.38-3.6,1.37-.77-1.15.08-2.78,1-3.79s2.06-2.33,1.62-3.79a2.12,2.12,0,0,0-1.43-1.42,4.68,4.68,0,0,0-3.23.6c-.66-1.84,1.39-3.29,2.6-4.88.74-1,0-2.48-1.09-2.28l-4.15.78a2,2,0,0,1-1.21-.11c-1.54-.65-1.22-2.72-.52-4.07.28-.52.61-1,.87-1.58a1.52,1.52,0,0,0-1-2.25,10.6,10.6,0,0,0-2.69.22c-.88-1.73.77-3.69,2.28-4.67a10.18,10.18,0,0,0,2.08-1.71,1.85,1.85,0,0,0-.85-3l-3-.53a1.83,1.83,0,0,1-.77-.3c-1.12-.81-.54-2.42.23-3.36.23-.28.48-.56.71-.85a1.24,1.24,0,0,0-.72-2l-.91-.06a20.4,20.4,0,0,0,1.35-3.8c.41-1.6-.84-3.12-2.25-2.75l-1.9.49a1.21,1.21,0,0,1-.75,0,1.07,1.07,0,0,1-.56-.82c-.51-2.45,3.53-3.76,3.08-6.23-.33-1.8-2.54-1.82-4.09-1.4a33.2,33.2,0,0,1,1.07-6.82,1,1,0,0,0-.82-1.25l-2.34,0a.93.93,0,0,1-.71-.19,1,1,0,0,1-.22-.65c-.09-1.35.76-2.5,1.1-3.79s-.39-3.18-1.51-2.78c-1.49-.7-2.52.37-3-1.18a2.32,2.32,0,0,1-.08-.87c.15-1.74,1.61-2.82,2-4.46a7,7,0,0,0-.22-3,1.56,1.56,0,0,0-.4-.89,2,2,0,0,0-.84-.28c-1.42-.43-1.52-2.71-1.13-4.34a8.48,8.48,0,0,0,.37-3.83,1,1,0,0,0-1.28-.81,5,5,0,0,0-1.66.86c-.73-1.55-.29-3.56-1.11-5.1a2.24,2.24,0,0,0-.82-.9c-1.26-.73-2.33.55-2.5,1.85a7.58,7.58,0,0,0,.43,3c-.78-.45-1.76.22-2.11,1.13a6.36,6.36,0,0,0-.17,2.95l.54,5.56c-.6-1.05-2.15-.65-2.7.43a5.64,5.64,0,0,0-.15,3.66,11.63,11.63,0,0,1,.09,5c-1.76.93-1.94-1.4-3.36-1.13a1.83,1.83,0,0,0-1.32,1.58c-.34,2.16.35,4.24.28,6.27-1.36-.47-2.89,1.23-2.52,2.82.23,1,1,1.69,1,2.74a1.29,1.29,0,0,1-.47,1.12c-.75.53-1.22-.67-2,0a1.48,1.48,0,0,0-.48,1.2c.08,1.28,1.09,2.08,1.22,3.34a1.55,1.55,0,0,1-.38,1.24c-.48.48-.89.15-1.33.09-1-.12-1.73,1.34-1.54,2.51a9.72,9.72,0,0,0,1.45,3.11,3.74,3.74,0,0,1,.43,3.35c-.88-.72-1.28-2-2.26-2.67a1.33,1.33,0,0,0-1.23-.16c-.84.36-1,1.52-.89,2.48a17.41,17.41,0,0,0,1.89,6.86c-1.22,1.12-2.61-2.59-4.07-1.6a1.58,1.58,0,0,0-.59,1.42A19.29,19.29,0,0,0,76.32,250a1.77,1.77,0,0,0-1.86-.61,2.19,2.19,0,0,0-1.34,2.07c0,1.31,1,2.28,1.63,3.38s.6,3-.53,3.26-1.72-1.64-2.76-2.29c-1.22-.76-2.81.55-3.09,2.12a7.39,7.39,0,0,0,1,4.55,13.32,13.32,0,0,1,1.74,4.34l-.44.28c-1.74-1.57-3.59.32-3,2.16a8.25,8.25,0,0,1,.5,2.34l-.06,1.2c0,2-1.65,3.76-3.38,3.7a3.31,3.31,0,0,0-3.41,1.81A3.84,3.84,0,0,0,62.77,283a4,4,0,0,1,1.16.84c1.37,1.52.29,2.53-.06,3.73a3.74,3.74,0,0,0,1.61,4,5.19,5.19,0,0,0,4,.41,6.18,6.18,0,0,1,2.64-.39c1.64.78.36,2.87,1.93,4.8a4,4,0,0,0,1.63,1.09,3.58,3.58,0,0,0,4.15-1.39,4.72,4.72,0,0,1,1.67-1.37,1.1,1.1,0,0,1,1.41,1.2,7.39,7.39,0,0,0,.89,4.22A2.52,2.52,0,0,0,86,301.43c1.66,0,2.49-1.95,3.17-3.57.84-2,2.42-4.26,4.66-2.13a3.82,3.82,0,0,1,1,2c.34,1.71,2.17,4.16,3.66,3.08,1.23-.89.89-3.42,2.64-3.83a2,2,0,0,1,1.51.32c1.85,1.23,2.11,4.14,4.16,5.08a1.67,1.67,0,0,0,2.07-.52c.61-.8.24-1.58.17-2.38a4.09,4.09,0,0,1,2.72-3.93c1.49-.58,3.11-.46,4.67-.67a5,5,0,0,0,4-2.44c.29-.58.43-1.24.75-1.81.91-1.64,2.86-1.91,4.54-2.15s3.65-.92,4.13-2.79C130.42,283.58,127.8,281.47,126.24,282.8Z" style="fill:#407BFF"></path><g style="opacity:0.5"><path d="M126.24,282.8c.35-2,.69-4,1-6.05A1.75,1.75,0,0,0,127,275a1.24,1.24,0,0,0-.6-.29c-1.34-.22-2.31,1.38-3.6,1.37-.77-1.15.08-2.78,1-3.79s2.06-2.33,1.62-3.79a2.12,2.12,0,0,0-1.43-1.42,4.68,4.68,0,0,0-3.23.6c-.66-1.84,1.39-3.29,2.6-4.88.74-1,0-2.48-1.09-2.28l-4.15.78a2,2,0,0,1-1.21-.11c-1.54-.65-1.22-2.72-.52-4.07.28-.52.61-1,.87-1.58a1.52,1.52,0,0,0-1-2.25,10.6,10.6,0,0,0-2.69.22c-.88-1.73.77-3.69,2.28-4.67a10.18,10.18,0,0,0,2.08-1.71,1.85,1.85,0,0,0-.85-3l-3-.53a1.83,1.83,0,0,1-.77-.3c-1.12-.81-.54-2.42.23-3.36.23-.28.48-.56.71-.85a1.24,1.24,0,0,0-.72-2l-.91-.06a20.4,20.4,0,0,0,1.35-3.8c.41-1.6-.84-3.12-2.25-2.75l-1.9.49a1.21,1.21,0,0,1-.75,0,1.07,1.07,0,0,1-.56-.82c-.51-2.45,3.53-3.76,3.08-6.23-.33-1.8-2.54-1.82-4.09-1.4a33.2,33.2,0,0,1,1.07-6.82,1,1,0,0,0-.82-1.25l-2.34,0a.93.93,0,0,1-.71-.19,1,1,0,0,1-.22-.65c-.09-1.35.76-2.5,1.1-3.79s-.39-3.18-1.51-2.78c-1.49-.7-2.52.37-3-1.18a2.32,2.32,0,0,1-.08-.87c.15-1.74,1.61-2.82,2-4.46a7,7,0,0,0-.22-3,1.56,1.56,0,0,0-.4-.89,2,2,0,0,0-.84-.28c-1.42-.43-1.52-2.71-1.13-4.34a8.48,8.48,0,0,0,.37-3.83,1,1,0,0,0-1.28-.81,5,5,0,0,0-1.66.86c-.73-1.55-.29-3.56-1.11-5.1a2.24,2.24,0,0,0-.82-.9c-1.26-.73-2.33.55-2.5,1.85a7.58,7.58,0,0,0,.43,3c-.78-.45-1.76.22-2.11,1.13a6.36,6.36,0,0,0-.17,2.95l.54,5.56c-.6-1.05-2.15-.65-2.7.43a5.64,5.64,0,0,0-.15,3.66,11.63,11.63,0,0,1,.09,5c-1.76.93-1.94-1.4-3.36-1.13a1.83,1.83,0,0,0-1.32,1.58c-.34,2.16.35,4.24.28,6.27-1.36-.47-2.89,1.23-2.52,2.82.23,1,1,1.69,1,2.74a1.29,1.29,0,0,1-.47,1.12c-.75.53-1.22-.67-2,0a1.48,1.48,0,0,0-.48,1.2c.08,1.28,1.09,2.08,1.22,3.34a1.55,1.55,0,0,1-.38,1.24c-.48.48-.89.15-1.33.09-1-.12-1.73,1.34-1.54,2.51a9.72,9.72,0,0,0,1.45,3.11,3.74,3.74,0,0,1,.43,3.35c-.88-.72-1.28-2-2.26-2.67a1.33,1.33,0,0,0-1.23-.16c-.84.36-1,1.52-.89,2.48a17.41,17.41,0,0,0,1.89,6.86c-1.22,1.12-2.61-2.59-4.07-1.6a1.58,1.58,0,0,0-.59,1.42A19.29,19.29,0,0,0,76.32,250a1.77,1.77,0,0,0-1.86-.61,2.19,2.19,0,0,0-1.34,2.07c0,1.31,1,2.28,1.63,3.38s.6,3-.53,3.26-1.72-1.64-2.76-2.29c-1.22-.76-2.81.55-3.09,2.12a7.39,7.39,0,0,0,1,4.55,13.32,13.32,0,0,1,1.74,4.34l-.44.28c-1.74-1.57-3.59.32-3,2.16a8.25,8.25,0,0,1,.5,2.34l-.06,1.2c0,2-1.65,3.76-3.38,3.7a3.31,3.31,0,0,0-3.41,1.81A3.84,3.84,0,0,0,62.77,283a4,4,0,0,1,1.16.84c1.37,1.52.29,2.53-.06,3.73a3.74,3.74,0,0,0,1.61,4,5.19,5.19,0,0,0,4,.41,6.18,6.18,0,0,1,2.64-.39c1.64.78.36,2.87,1.93,4.8a4,4,0,0,0,1.63,1.09,3.58,3.58,0,0,0,4.15-1.39,4.72,4.72,0,0,1,1.67-1.37,1.1,1.1,0,0,1,1.41,1.2,7.39,7.39,0,0,0,.89,4.22A2.52,2.52,0,0,0,86,301.43c1.66,0,2.49-1.95,3.17-3.57.84-2,2.42-4.26,4.66-2.13a3.82,3.82,0,0,1,1,2c.34,1.71,2.17,4.16,3.66,3.08,1.23-.89.89-3.42,2.64-3.83a2,2,0,0,1,1.51.32c1.85,1.23,2.11,4.14,4.16,5.08a1.67,1.67,0,0,0,2.07-.52c.61-.8.24-1.58.17-2.38a4.09,4.09,0,0,1,2.72-3.93c1.49-.58,3.11-.46,4.67-.67a5,5,0,0,0,4-2.44c.29-.58.43-1.24.75-1.81.91-1.64,2.86-1.91,4.54-2.15s3.65-.92,4.13-2.79C130.42,283.58,127.8,281.47,126.24,282.8Z" style="fill:#fff"></path></g><path d="M539.41,278.85l10.73,1.54s.06,30.05.45,33.75,5.5,7.4,5.5,7.4H535.93C541.17,312.6,539.41,278.85,539.41,278.85Z" style="fill:#263238"></path><path d="M508.36,273.47c-.42-2.49-.85-5-1.27-7.47a2.17,2.17,0,0,1,.41-2.18,1.42,1.42,0,0,1,.73-.35c1.63-.28,2.83,1.7,4.41,1.68.94-1.42-.1-3.43-1.21-4.67s-2.53-2.89-2-4.68a2.58,2.58,0,0,1,1.75-1.75c1.37-.41,2.69.16,4,.73.81-2.27-1.71-4.06-3.19-6-.9-1.2,0-3.06,1.34-2.8l5.08,1a2.5,2.5,0,0,0,1.48-.13c1.89-.8,1.5-3.36.64-5-.34-.65-.74-1.29-1.07-1.95-.59-1.2.1-2.74,1.29-2.79a13.07,13.07,0,0,1,3.3.27c1.08-2.13-.95-4.55-2.8-5.77a12.89,12.89,0,0,1-2.55-2.1c-1.09-1.26-.47-3.43,1.05-3.7l3.66-.66a2.18,2.18,0,0,0,.94-.37c1.37-1,.66-3-.28-4.15-.28-.34-.59-.69-.87-1.05a1.54,1.54,0,0,1,.88-2.49l1.12-.06a25.93,25.93,0,0,1-1.66-4.7c-.49-2,1-3.85,2.77-3.39l2.32.61a1.5,1.5,0,0,0,.91,0,1.34,1.34,0,0,0,.7-1c.62-3-4.33-4.64-3.78-7.69.4-2.23,3.11-2.25,5-1.73a40.25,40.25,0,0,0-1.31-8.42,1.18,1.18,0,0,1,1-1.55l2.87.06a1.13,1.13,0,0,0,.87-.23,1.29,1.29,0,0,0,.27-.81c.11-1.65-.93-3.08-1.35-4.67s.48-3.93,1.85-3.43c1.82-.87,3.09.45,3.61-1.46a3,3,0,0,0,.1-1.08c-.18-2.15-2-3.48-2.41-5.5a8.64,8.64,0,0,1,.27-3.67,2.06,2.06,0,0,1,.48-1.1,2.67,2.67,0,0,1,1-.35c1.73-.52,1.87-3.34,1.38-5.35a10.78,10.78,0,0,1-.45-4.73,1.28,1.28,0,0,1,1.57-1,6,6,0,0,1,2,1.06c.9-1.91.36-4.39,1.36-6.3a2.86,2.86,0,0,1,1-1.11c1.54-.9,2.85.68,3.06,2.29a9.67,9.67,0,0,1-.53,3.76c1-.56,2.15.27,2.59,1.39a8.13,8.13,0,0,1,.2,3.65l-.66,6.86c.73-1.29,2.63-.8,3.31.53a7.06,7.06,0,0,1,.18,4.53c-.34,1.65-.64,4.52-.11,6.15,2.16,1.14,2.38-1.74,4.11-1.4a2.22,2.22,0,0,1,1.62,1.95c.42,2.66-.42,5.23-.34,7.74,1.67-.58,3.54,1.52,3.09,3.48-.28,1.19-1.19,2.09-1.25,3.39a1.64,1.64,0,0,0,.57,1.38c.93.66,1.5-.82,2.45,0a1.8,1.8,0,0,1,.58,1.48c-.1,1.57-1.34,2.57-1.5,4.12a1.9,1.9,0,0,0,.48,1.52c.57.6,1.08.19,1.62.12,1.25-.15,2.11,1.65,1.89,3.09a12.19,12.19,0,0,1-1.79,3.85c-.67,1.24-1.15,2.86-.52,4.14,1.09-.89,1.57-2.53,2.78-3.3a1.59,1.59,0,0,1,1.5-.2c1,.45,1.16,1.88,1.08,3.06a21.55,21.55,0,0,1-2.31,8.48c1.5,1.38,3.2-3.21,5-2a1.93,1.93,0,0,1,.73,1.74A24,24,0,0,1,569.51,233a2.12,2.12,0,0,1,2.27-.74,2.68,2.68,0,0,1,1.65,2.54c0,1.63-1.24,2.82-2,4.18s-.73,3.76.65,4,2.11-2,3.38-2.82c1.5-.95,3.45.67,3.79,2.62a9.17,9.17,0,0,1-1.29,5.62,16.4,16.4,0,0,0-2.13,5.36l.54.34c2.13-1.94,4.4.39,3.69,2.67a9.89,9.89,0,0,0-.61,2.89l.06,1.47c0,2.46,2,4.65,4.14,4.58,1.69-.06,3.44.47,4.18,2.23.87,2.05.13,4.87-1.72,5.83a4.77,4.77,0,0,0-1.42,1c-1.68,1.87-.36,3.12.07,4.61a4.65,4.65,0,0,1-2,4.93,6.26,6.26,0,0,1-5,.5,7.55,7.55,0,0,0-3.23-.48c-2,1-.44,3.55-2.37,5.93a4.78,4.78,0,0,1-2,1.34c-2.28.73-3.82-.18-5.08-1.71a5.78,5.78,0,0,0-2-1.69c-.85-.36-1.74.42-1.72,1.48a9.15,9.15,0,0,1-1.1,5.21,3.07,3.07,0,0,1-2.59,1.57c-2-.05-3.05-2.41-3.88-4.41-1-2.45-3-5.26-5.71-2.63a4.68,4.68,0,0,0-1.25,2.51c-.41,2.11-2.66,5.13-4.49,3.8-1.5-1.1-1.08-4.23-3.22-4.73a2.33,2.33,0,0,0-1.85.4c-2.27,1.51-2.6,5.11-5.1,6.27a2,2,0,0,1-2.54-.64c-.74-1-.3-1.95-.21-2.94a5.06,5.06,0,0,0-3.33-4.86c-1.83-.71-3.81-.56-5.72-.82a6.09,6.09,0,0,1-4.93-3c-.36-.72-.54-1.54-.92-2.24-1.12-2-3.5-2.35-5.56-2.65s-4.47-1.13-5.06-3.44C503.25,274.44,506.45,271.83,508.36,273.47Z" style="fill:#407BFF"></path><g style="opacity:0.7000000000000001"><path d="M508.36,273.47c-.42-2.49-.85-5-1.27-7.47a2.17,2.17,0,0,1,.41-2.18,1.42,1.42,0,0,1,.73-.35c1.63-.28,2.83,1.7,4.41,1.68.94-1.42-.1-3.43-1.21-4.67s-2.53-2.89-2-4.68a2.58,2.58,0,0,1,1.75-1.75c1.37-.41,2.69.16,4,.73.81-2.27-1.71-4.06-3.19-6-.9-1.2,0-3.06,1.34-2.8l5.08,1a2.5,2.5,0,0,0,1.48-.13c1.89-.8,1.5-3.36.64-5-.34-.65-.74-1.29-1.07-1.95-.59-1.2.1-2.74,1.29-2.79a13.07,13.07,0,0,1,3.3.27c1.08-2.13-.95-4.55-2.8-5.77a12.89,12.89,0,0,1-2.55-2.1c-1.09-1.26-.47-3.43,1.05-3.7l3.66-.66a2.18,2.18,0,0,0,.94-.37c1.37-1,.66-3-.28-4.15-.28-.34-.59-.69-.87-1.05a1.54,1.54,0,0,1,.88-2.49l1.12-.06a25.93,25.93,0,0,1-1.66-4.7c-.49-2,1-3.85,2.77-3.39l2.32.61a1.5,1.5,0,0,0,.91,0,1.34,1.34,0,0,0,.7-1c.62-3-4.33-4.64-3.78-7.69.4-2.23,3.11-2.25,5-1.73a40.25,40.25,0,0,0-1.31-8.42,1.18,1.18,0,0,1,1-1.55l2.87.06a1.13,1.13,0,0,0,.87-.23,1.29,1.29,0,0,0,.27-.81c.11-1.65-.93-3.08-1.35-4.67s.48-3.93,1.85-3.43c1.82-.87,3.09.45,3.61-1.46a3,3,0,0,0,.1-1.08c-.18-2.15-2-3.48-2.41-5.5a8.64,8.64,0,0,1,.27-3.67,2.06,2.06,0,0,1,.48-1.1,2.67,2.67,0,0,1,1-.35c1.73-.52,1.87-3.34,1.38-5.35a10.78,10.78,0,0,1-.45-4.73,1.28,1.28,0,0,1,1.57-1,6,6,0,0,1,2,1.06c.9-1.91.36-4.39,1.36-6.3a2.86,2.86,0,0,1,1-1.11c1.54-.9,2.85.68,3.06,2.29a9.67,9.67,0,0,1-.53,3.76c1-.56,2.15.27,2.59,1.39a8.13,8.13,0,0,1,.2,3.65l-.66,6.86c.73-1.29,2.63-.8,3.31.53a7.06,7.06,0,0,1,.18,4.53c-.34,1.65-.64,4.52-.11,6.15,2.16,1.14,2.38-1.74,4.11-1.4a2.22,2.22,0,0,1,1.62,1.95c.42,2.66-.42,5.23-.34,7.74,1.67-.58,3.54,1.52,3.09,3.48-.28,1.19-1.19,2.09-1.25,3.39a1.64,1.64,0,0,0,.57,1.38c.93.66,1.5-.82,2.45,0a1.8,1.8,0,0,1,.58,1.48c-.1,1.57-1.34,2.57-1.5,4.12a1.9,1.9,0,0,0,.48,1.52c.57.6,1.08.19,1.62.12,1.25-.15,2.11,1.65,1.89,3.09a12.19,12.19,0,0,1-1.79,3.85c-.67,1.24-1.15,2.86-.52,4.14,1.09-.89,1.57-2.53,2.78-3.3a1.59,1.59,0,0,1,1.5-.2c1,.45,1.16,1.88,1.08,3.06a21.55,21.55,0,0,1-2.31,8.48c1.5,1.38,3.2-3.21,5-2a1.93,1.93,0,0,1,.73,1.74A24,24,0,0,1,569.51,233a2.12,2.12,0,0,1,2.27-.74,2.68,2.68,0,0,1,1.65,2.54c0,1.63-1.24,2.82-2,4.18s-.73,3.76.65,4,2.11-2,3.38-2.82c1.5-.95,3.45.67,3.79,2.62a9.17,9.17,0,0,1-1.29,5.62,16.4,16.4,0,0,0-2.13,5.36l.54.34c2.13-1.94,4.4.39,3.69,2.67a9.89,9.89,0,0,0-.61,2.89l.06,1.47c0,2.46,2,4.65,4.14,4.58,1.69-.06,3.44.47,4.18,2.23.87,2.05.13,4.87-1.72,5.83a4.77,4.77,0,0,0-1.42,1c-1.68,1.87-.36,3.12.07,4.61a4.65,4.65,0,0,1-2,4.93,6.26,6.26,0,0,1-5,.5,7.55,7.55,0,0,0-3.23-.48c-2,1-.44,3.55-2.37,5.93a4.78,4.78,0,0,1-2,1.34c-2.28.73-3.82-.18-5.08-1.71a5.78,5.78,0,0,0-2-1.69c-.85-.36-1.74.42-1.72,1.48a9.15,9.15,0,0,1-1.1,5.21,3.07,3.07,0,0,1-2.59,1.57c-2-.05-3.05-2.41-3.88-4.41-1-2.45-3-5.26-5.71-2.63a4.68,4.68,0,0,0-1.25,2.51c-.41,2.11-2.66,5.13-4.49,3.8-1.5-1.1-1.08-4.23-3.22-4.73a2.33,2.33,0,0,0-1.85.4c-2.27,1.51-2.6,5.11-5.1,6.27a2,2,0,0,1-2.54-.64c-.74-1-.3-1.95-.21-2.94a5.06,5.06,0,0,0-3.33-4.86c-1.83-.71-3.81-.56-5.72-.82a6.09,6.09,0,0,1-4.93-3c-.36-.72-.54-1.54-.92-2.24-1.12-2-3.5-2.35-5.56-2.65s-4.47-1.13-5.06-3.44C503.25,274.44,506.45,271.83,508.36,273.47Z" style="fill:#fff"></path></g><path d="M456.35,281.83l10,1.43s.07,27.95.42,31.4,5.12,6.88,5.12,6.88H453.11C458,313.22,456.35,281.83,456.35,281.83Z" style="fill:#263238"></path><path d="M427.46,276.83c-.39-2.32-.79-4.64-1.18-6.95a2,2,0,0,1,.38-2,1.35,1.35,0,0,1,.68-.33c1.52-.26,2.64,1.58,4.1,1.57.88-1.32-.09-3.2-1.12-4.35s-2.35-2.68-1.85-4.35a2.4,2.4,0,0,1,1.63-1.63,5.26,5.26,0,0,1,3.67.68c.76-2.11-1.58-3.78-2.95-5.61-.85-1.12,0-2.84,1.24-2.61l4.73.89a2.29,2.29,0,0,0,1.37-.12c1.76-.75,1.4-3.13.59-4.67-.31-.6-.68-1.2-1-1.82a1.76,1.76,0,0,1,1.2-2.59,12.18,12.18,0,0,1,3.07.25c1-2-.88-4.23-2.6-5.36a11.24,11.24,0,0,1-2.37-2,2.12,2.12,0,0,1,1-3.44l3.41-.61a2.25,2.25,0,0,0,.87-.35c1.28-.94.61-2.78-.26-3.86-.26-.32-.55-.64-.81-1a1.43,1.43,0,0,1,.82-2.32l1-.06a23.35,23.35,0,0,1-1.54-4.37c-.46-1.84.95-3.58,2.57-3.16l2.16.57a1.38,1.38,0,0,0,.85,0,1.24,1.24,0,0,0,.64-.93c.58-2.83-4-4.33-3.51-7.17.37-2.06,2.89-2.09,4.66-1.6a38.21,38.21,0,0,0-1.21-7.84,1.08,1.08,0,0,1,.93-1.43l2.66,0a1,1,0,0,0,.81-.22,1.17,1.17,0,0,0,.26-.74c.09-1.54-.87-2.88-1.26-4.35s.45-3.66,1.72-3.19c1.7-.81,2.87.42,3.36-1.36a2.81,2.81,0,0,0,.09-1c-.17-2-1.83-3.24-2.24-5.12a8.11,8.11,0,0,1,.25-3.42,1.78,1.78,0,0,1,.45-1,2.29,2.29,0,0,1,1-.33c1.62-.49,1.74-3.11,1.29-5a9.87,9.87,0,0,1-.42-4.4,1.19,1.19,0,0,1,1.46-.93,5.63,5.63,0,0,1,1.89,1c.83-1.78.33-4.09,1.27-5.86a2.51,2.51,0,0,1,.93-1c1.43-.84,2.65.62,2.85,2.12a8.93,8.93,0,0,1-.49,3.5c.88-.51,2,.25,2.4,1.3a7.42,7.42,0,0,1,.19,3.39l-.62,6.38c.69-1.2,2.46-.74,3.09.5a6.53,6.53,0,0,1,.16,4.2,13.84,13.84,0,0,0-.1,5.73c2,1.06,2.21-1.62,3.83-1.31a2.09,2.09,0,0,1,1.5,1.82c.39,2.48-.39,4.87-.32,7.2,1.56-.54,3.3,1.42,2.87,3.24-.25,1.11-1.1,1.94-1.16,3.15a1.49,1.49,0,0,0,.54,1.28c.86.62,1.39-.76,2.27,0a1.67,1.67,0,0,1,.54,1.38c-.09,1.47-1.24,2.39-1.39,3.83a1.81,1.81,0,0,0,.44,1.42c.54.55,1,.17,1.51.11,1.17-.14,2,1.53,1.76,2.88a11.3,11.3,0,0,1-1.66,3.57,4.4,4.4,0,0,0-.49,3.85c1-.82,1.46-2.34,2.58-3.06a1.47,1.47,0,0,1,1.4-.18c1,.41,1.08,1.74,1,2.84a20,20,0,0,1-2.15,7.88c1.4,1.29,3-3,4.64-1.84a1.83,1.83,0,0,1,.67,1.63,22.35,22.35,0,0,1-3.65,10.94,2,2,0,0,1,2.11-.7,2.49,2.49,0,0,1,1.53,2.37c0,1.51-1.15,2.62-1.86,3.89s-.68,3.49.6,3.74,2-1.88,3.15-2.63c1.4-.88,3.21.63,3.53,2.44a8.54,8.54,0,0,1-1.2,5.22,15.2,15.2,0,0,0-2,5l.5.32c2-1.81,4.09.36,3.43,2.48a9.25,9.25,0,0,0-.57,2.69l.06,1.37c0,2.29,1.88,4.32,3.85,4.26a3.76,3.76,0,0,1,3.89,2.07c.8,1.91.12,4.53-1.61,5.43a4.52,4.52,0,0,0-1.31,1c-1.56,1.74-.34,2.91.06,4.29a4.33,4.33,0,0,1-1.83,4.59,5.83,5.83,0,0,1-4.61.46,7,7,0,0,0-3-.44c-1.87.9-.41,3.29-2.2,5.51a4.61,4.61,0,0,1-1.86,1.25,4,4,0,0,1-4.73-1.6,5.25,5.25,0,0,0-1.91-1.56c-.79-.34-1.62.39-1.6,1.37a8.51,8.51,0,0,1-1,4.85,2.89,2.89,0,0,1-2.41,1.46c-1.89-.05-2.83-2.24-3.61-4.1-.95-2.28-2.76-4.9-5.31-2.45a4.27,4.27,0,0,0-1.16,2.34c-.39,2-2.48,4.77-4.18,3.53-1.4-1-1-3.93-3-4.4a2.18,2.18,0,0,0-1.72.37c-2.11,1.41-2.41,4.75-4.74,5.84a1.92,1.92,0,0,1-2.37-.6c-.68-.92-.27-1.82-.19-2.73a4.7,4.7,0,0,0-3.09-4.52c-1.71-.66-3.55-.53-5.33-.77a5.64,5.64,0,0,1-4.58-2.8c-.33-.66-.5-1.43-.86-2.08-1-1.89-3.26-2.19-5.17-2.47s-4.16-1.05-4.71-3.2C422.71,277.73,425.69,275.3,427.46,276.83Z" style="fill:#407BFF"></path><g style="opacity:0.7000000000000001"><path d="M427.46,276.83c-.39-2.32-.79-4.64-1.18-6.95a2,2,0,0,1,.38-2,1.35,1.35,0,0,1,.68-.33c1.52-.26,2.64,1.58,4.1,1.57.88-1.32-.09-3.2-1.12-4.35s-2.35-2.68-1.85-4.35a2.4,2.4,0,0,1,1.63-1.63,5.26,5.26,0,0,1,3.67.68c.76-2.11-1.58-3.78-2.95-5.61-.85-1.12,0-2.84,1.24-2.61l4.73.89a2.29,2.29,0,0,0,1.37-.12c1.76-.75,1.4-3.13.59-4.67-.31-.6-.68-1.2-1-1.82a1.76,1.76,0,0,1,1.2-2.59,12.18,12.18,0,0,1,3.07.25c1-2-.88-4.23-2.6-5.36a11.24,11.24,0,0,1-2.37-2,2.12,2.12,0,0,1,1-3.44l3.41-.61a2.25,2.25,0,0,0,.87-.35c1.28-.94.61-2.78-.26-3.86-.26-.32-.55-.64-.81-1a1.43,1.43,0,0,1,.82-2.32l1-.06a23.35,23.35,0,0,1-1.54-4.37c-.46-1.84.95-3.58,2.57-3.16l2.16.57a1.38,1.38,0,0,0,.85,0,1.24,1.24,0,0,0,.64-.93c.58-2.83-4-4.33-3.51-7.17.37-2.06,2.89-2.09,4.66-1.6a38.21,38.21,0,0,0-1.21-7.84,1.08,1.08,0,0,1,.93-1.43l2.66,0a1,1,0,0,0,.81-.22,1.17,1.17,0,0,0,.26-.74c.09-1.54-.87-2.88-1.26-4.35s.45-3.66,1.72-3.19c1.7-.81,2.87.42,3.36-1.36a2.81,2.81,0,0,0,.09-1c-.17-2-1.83-3.24-2.24-5.12a8.11,8.11,0,0,1,.25-3.42,1.78,1.78,0,0,1,.45-1,2.29,2.29,0,0,1,1-.33c1.62-.49,1.74-3.11,1.29-5a9.87,9.87,0,0,1-.42-4.4,1.19,1.19,0,0,1,1.46-.93,5.63,5.63,0,0,1,1.89,1c.83-1.78.33-4.09,1.27-5.86a2.51,2.51,0,0,1,.93-1c1.43-.84,2.65.62,2.85,2.12a8.93,8.93,0,0,1-.49,3.5c.88-.51,2,.25,2.4,1.3a7.42,7.42,0,0,1,.19,3.39l-.62,6.38c.69-1.2,2.46-.74,3.09.5a6.53,6.53,0,0,1,.16,4.2,13.84,13.84,0,0,0-.1,5.73c2,1.06,2.21-1.62,3.83-1.31a2.09,2.09,0,0,1,1.5,1.82c.39,2.48-.39,4.87-.32,7.2,1.56-.54,3.3,1.42,2.87,3.24-.25,1.11-1.1,1.94-1.16,3.15a1.49,1.49,0,0,0,.54,1.28c.86.62,1.39-.76,2.27,0a1.67,1.67,0,0,1,.54,1.38c-.09,1.47-1.24,2.39-1.39,3.83a1.81,1.81,0,0,0,.44,1.42c.54.55,1,.17,1.51.11,1.17-.14,2,1.53,1.76,2.88a11.3,11.3,0,0,1-1.66,3.57,4.4,4.4,0,0,0-.49,3.85c1-.82,1.46-2.34,2.58-3.06a1.47,1.47,0,0,1,1.4-.18c1,.41,1.08,1.74,1,2.84a20,20,0,0,1-2.15,7.88c1.4,1.29,3-3,4.64-1.84a1.83,1.83,0,0,1,.67,1.63,22.35,22.35,0,0,1-3.65,10.94,2,2,0,0,1,2.11-.7,2.49,2.49,0,0,1,1.53,2.37c0,1.51-1.15,2.62-1.86,3.89s-.68,3.49.6,3.74,2-1.88,3.15-2.63c1.4-.88,3.21.63,3.53,2.44a8.54,8.54,0,0,1-1.2,5.22,15.2,15.2,0,0,0-2,5l.5.32c2-1.81,4.09.36,3.43,2.48a9.25,9.25,0,0,0-.57,2.69l.06,1.37c0,2.29,1.88,4.32,3.85,4.26a3.76,3.76,0,0,1,3.89,2.07c.8,1.91.12,4.53-1.61,5.43a4.52,4.52,0,0,0-1.31,1c-1.56,1.74-.34,2.91.06,4.29a4.33,4.33,0,0,1-1.83,4.59,5.83,5.83,0,0,1-4.61.46,7,7,0,0,0-3-.44c-1.87.9-.41,3.29-2.2,5.51a4.61,4.61,0,0,1-1.86,1.25,4,4,0,0,1-4.73-1.6,5.25,5.25,0,0,0-1.91-1.56c-.79-.34-1.62.39-1.6,1.37a8.51,8.51,0,0,1-1,4.85,2.89,2.89,0,0,1-2.41,1.46c-1.89-.05-2.83-2.24-3.61-4.1-.95-2.28-2.76-4.9-5.31-2.45a4.27,4.27,0,0,0-1.16,2.34c-.39,2-2.48,4.77-4.18,3.53-1.4-1-1-3.93-3-4.4a2.18,2.18,0,0,0-1.72.37c-2.11,1.41-2.41,4.75-4.74,5.84a1.92,1.92,0,0,1-2.37-.6c-.68-.92-.27-1.82-.19-2.73a4.7,4.7,0,0,0-3.09-4.52c-1.71-.66-3.55-.53-5.33-.77a5.64,5.64,0,0,1-4.58-2.8c-.33-.66-.5-1.43-.86-2.08-1-1.89-3.26-2.19-5.17-2.47s-4.16-1.05-4.71-3.2C422.71,277.73,425.69,275.3,427.46,276.83Z" style="fill:#fff"></path></g><path d="M230.38,289.09l8.15,1.16s.05,22.85.34,25.66,4.19,5.63,4.19,5.63H227.73C231.71,314.74,230.38,289.09,230.38,289.09Z" style="fill:#263238"></path><path d="M206.77,285c-.32-1.89-.64-3.79-1-5.68a1.67,1.67,0,0,1,.32-1.66,1.19,1.19,0,0,1,.55-.27c1.25-.21,2.16,1.29,3.35,1.28.72-1.08-.07-2.61-.91-3.55s-1.93-2.19-1.52-3.56a2,2,0,0,1,1.33-1.33,4.34,4.34,0,0,1,3,.56c.62-1.73-1.29-3.09-2.42-4.58-.69-.92,0-2.33,1-2.14l3.86.73a2,2,0,0,0,1.13-.1c1.43-.61,1.14-2.55.48-3.82-.26-.49-.56-1-.81-1.48a1.44,1.44,0,0,1,1-2.12,9.65,9.65,0,0,1,2.51.21c.81-1.62-.72-3.46-2.13-4.39a9.39,9.39,0,0,1-1.94-1.59,1.75,1.75,0,0,1,.8-2.82l2.78-.5a1.58,1.58,0,0,0,.71-.29c1-.76.5-2.26-.21-3.15L218,244a1.16,1.16,0,0,1,.67-1.89l.85-.06a19.79,19.79,0,0,1-1.26-3.56c-.38-1.51.78-2.93,2.1-2.59l1.77.47a1.09,1.09,0,0,0,.69,0,1,1,0,0,0,.53-.76c.47-2.31-3.29-3.54-2.87-5.86.3-1.69,2.36-1.71,3.81-1.31a31.26,31.26,0,0,0-1-6.4.9.9,0,0,1,.76-1.18l2.18.05a.85.85,0,0,0,.67-.18,1,1,0,0,0,.2-.61c.08-1.26-.71-2.35-1-3.55s.37-3,1.41-2.61c1.39-.66,2.35.34,2.75-1.11a2.25,2.25,0,0,0,.07-.82c-.14-1.63-1.5-2.65-1.83-4.18a6.6,6.6,0,0,1,.2-2.79,1.51,1.51,0,0,1,.37-.83,1.82,1.82,0,0,1,.79-.27c1.32-.4,1.42-2.54,1-4.07a8,8,0,0,1-.34-3.6,1,1,0,0,1,1.19-.76,4.56,4.56,0,0,1,1.54.81c.69-1.45.27-3.34,1-4.79a2.21,2.21,0,0,1,.76-.84c1.17-.69,2.17.51,2.33,1.74a7.3,7.3,0,0,1-.4,2.85c.72-.42,1.63.21,2,1.06a6,6,0,0,1,.16,2.78l-.51,5.21c.56-1,2-.6,2.53.41a5.44,5.44,0,0,1,.13,3.44,11,11,0,0,0-.08,4.67c1.64.87,1.8-1.32,3.12-1.06a1.7,1.7,0,0,1,1.23,1.48c.32,2-.32,4-.26,5.89,1.27-.45,2.69,1.15,2.35,2.64-.21.91-.91,1.59-.95,2.58a1.21,1.21,0,0,0,.44,1c.7.51,1.13-.62,1.86,0a1.4,1.4,0,0,1,.44,1.13c-.07,1.2-1,1.95-1.14,3.13a1.43,1.43,0,0,0,.36,1.16c.44.45.82.14,1.23.09,1-.12,1.61,1.25,1.44,2.35a9.06,9.06,0,0,1-1.36,2.92,3.63,3.63,0,0,0-.4,3.15c.83-.67,1.2-1.92,2.12-2.51a1.23,1.23,0,0,1,1.14-.15c.78.34.88,1.43.82,2.33a16.26,16.26,0,0,1-1.76,6.44c1.15,1.05,2.44-2.43,3.79-1.5a1.49,1.49,0,0,1,.56,1.33,18.32,18.32,0,0,1-3,8.94,1.62,1.62,0,0,1,1.73-.57,2.05,2.05,0,0,1,1.25,1.93c0,1.24-.94,2.15-1.52,3.18s-.56,2.86.49,3.06,1.61-1.54,2.57-2.15c1.14-.72,2.62.51,2.88,2a7,7,0,0,1-1,4.27,12.68,12.68,0,0,0-1.62,4.08l.41.26c1.62-1.48,3.35.29,2.81,2a7.48,7.48,0,0,0-.47,2.19l.05,1.12c0,1.87,1.54,3.53,3.15,3.48a3.08,3.08,0,0,1,3.18,1.7,3.63,3.63,0,0,1-1.32,4.43,3.54,3.54,0,0,0-1.07.79c-1.28,1.42-.28,2.38.05,3.5a3.53,3.53,0,0,1-1.5,3.75,4.76,4.76,0,0,1-3.77.38,5.78,5.78,0,0,0-2.45-.36c-1.53.73-.34,2.69-1.8,4.51a3.85,3.85,0,0,1-1.52,1,3.29,3.29,0,0,1-3.86-1.31,4.5,4.5,0,0,0-1.56-1.28c-.65-.27-1.33.32-1.32,1.12a6.88,6.88,0,0,1-.83,4,2.35,2.35,0,0,1-2,1.2c-1.54,0-2.31-1.83-3-3.35-.78-1.87-2.25-4-4.34-2a3.68,3.68,0,0,0-.95,1.92c-.31,1.6-2,3.9-3.41,2.89-1.14-.84-.82-3.22-2.45-3.6a1.76,1.76,0,0,0-1.41.3c-1.72,1.15-2,3.88-3.88,4.77a1.56,1.56,0,0,1-1.93-.49c-.56-.75-.22-1.48-.15-2.23a3.86,3.86,0,0,0-2.53-3.7,18.72,18.72,0,0,0-4.35-.62,4.62,4.62,0,0,1-3.75-2.29c-.27-.54-.41-1.17-.7-1.7-.85-1.54-2.66-1.79-4.23-2s-3.4-.86-3.84-2.61C202.89,285.73,205.32,283.75,206.77,285Z" style="fill:#407BFF"></path><g style="opacity:0.7000000000000001"><path d="M206.77,285c-.32-1.89-.64-3.79-1-5.68a1.67,1.67,0,0,1,.32-1.66,1.19,1.19,0,0,1,.55-.27c1.25-.21,2.16,1.29,3.35,1.28.72-1.08-.07-2.61-.91-3.55s-1.93-2.19-1.52-3.56a2,2,0,0,1,1.33-1.33,4.34,4.34,0,0,1,3,.56c.62-1.73-1.29-3.09-2.42-4.58-.69-.92,0-2.33,1-2.14l3.86.73a2,2,0,0,0,1.13-.1c1.43-.61,1.14-2.55.48-3.82-.26-.49-.56-1-.81-1.48a1.44,1.44,0,0,1,1-2.12,9.65,9.65,0,0,1,2.51.21c.81-1.62-.72-3.46-2.13-4.39a9.39,9.39,0,0,1-1.94-1.59,1.75,1.75,0,0,1,.8-2.82l2.78-.5a1.58,1.58,0,0,0,.71-.29c1-.76.5-2.26-.21-3.15L218,244a1.16,1.16,0,0,1,.67-1.89l.85-.06a19.79,19.79,0,0,1-1.26-3.56c-.38-1.51.78-2.93,2.1-2.59l1.77.47a1.09,1.09,0,0,0,.69,0,1,1,0,0,0,.53-.76c.47-2.31-3.29-3.54-2.87-5.86.3-1.69,2.36-1.71,3.81-1.31a31.26,31.26,0,0,0-1-6.4.9.9,0,0,1,.76-1.18l2.18.05a.85.85,0,0,0,.67-.18,1,1,0,0,0,.2-.61c.08-1.26-.71-2.35-1-3.55s.37-3,1.41-2.61c1.39-.66,2.35.34,2.75-1.11a2.25,2.25,0,0,0,.07-.82c-.14-1.63-1.5-2.65-1.83-4.18a6.6,6.6,0,0,1,.2-2.79,1.51,1.51,0,0,1,.37-.83,1.82,1.82,0,0,1,.79-.27c1.32-.4,1.42-2.54,1-4.07a8,8,0,0,1-.34-3.6,1,1,0,0,1,1.19-.76,4.56,4.56,0,0,1,1.54.81c.69-1.45.27-3.34,1-4.79a2.21,2.21,0,0,1,.76-.84c1.17-.69,2.17.51,2.33,1.74a7.3,7.3,0,0,1-.4,2.85c.72-.42,1.63.21,2,1.06a6,6,0,0,1,.16,2.78l-.51,5.21c.56-1,2-.6,2.53.41a5.44,5.44,0,0,1,.13,3.44,11,11,0,0,0-.08,4.67c1.64.87,1.8-1.32,3.12-1.06a1.7,1.7,0,0,1,1.23,1.48c.32,2-.32,4-.26,5.89,1.27-.45,2.69,1.15,2.35,2.64-.21.91-.91,1.59-.95,2.58a1.21,1.21,0,0,0,.44,1c.7.51,1.13-.62,1.86,0a1.4,1.4,0,0,1,.44,1.13c-.07,1.2-1,1.95-1.14,3.13a1.43,1.43,0,0,0,.36,1.16c.44.45.82.14,1.23.09,1-.12,1.61,1.25,1.44,2.35a9.06,9.06,0,0,1-1.36,2.92,3.63,3.63,0,0,0-.4,3.15c.83-.67,1.2-1.92,2.12-2.51a1.23,1.23,0,0,1,1.14-.15c.78.34.88,1.43.82,2.33a16.26,16.26,0,0,1-1.76,6.44c1.15,1.05,2.44-2.43,3.79-1.5a1.49,1.49,0,0,1,.56,1.33,18.32,18.32,0,0,1-3,8.94,1.62,1.62,0,0,1,1.73-.57,2.05,2.05,0,0,1,1.25,1.93c0,1.24-.94,2.15-1.52,3.18s-.56,2.86.49,3.06,1.61-1.54,2.57-2.15c1.14-.72,2.62.51,2.88,2a7,7,0,0,1-1,4.27,12.68,12.68,0,0,0-1.62,4.08l.41.26c1.62-1.48,3.35.29,2.81,2a7.48,7.48,0,0,0-.47,2.19l.05,1.12c0,1.87,1.54,3.53,3.15,3.48a3.08,3.08,0,0,1,3.18,1.7,3.63,3.63,0,0,1-1.32,4.43,3.54,3.54,0,0,0-1.07.79c-1.28,1.42-.28,2.38.05,3.5a3.53,3.53,0,0,1-1.5,3.75,4.76,4.76,0,0,1-3.77.38,5.78,5.78,0,0,0-2.45-.36c-1.53.73-.34,2.69-1.8,4.51a3.85,3.85,0,0,1-1.52,1,3.29,3.29,0,0,1-3.86-1.31,4.5,4.5,0,0,0-1.56-1.28c-.65-.27-1.33.32-1.32,1.12a6.88,6.88,0,0,1-.83,4,2.35,2.35,0,0,1-2,1.2c-1.54,0-2.31-1.83-3-3.35-.78-1.87-2.25-4-4.34-2a3.68,3.68,0,0,0-.95,1.92c-.31,1.6-2,3.9-3.41,2.89-1.14-.84-.82-3.22-2.45-3.6a1.76,1.76,0,0,0-1.41.3c-1.72,1.15-2,3.88-3.88,4.77a1.56,1.56,0,0,1-1.93-.49c-.56-.75-.22-1.48-.15-2.23a3.86,3.86,0,0,0-2.53-3.7,18.72,18.72,0,0,0-4.35-.62,4.62,4.62,0,0,1-3.75-2.29c-.27-.54-.41-1.17-.7-1.7-.85-1.54-2.66-1.79-4.23-2s-3.4-.86-3.84-2.61C202.89,285.73,205.32,283.75,206.77,285Z" style="fill:#fff"></path></g><path d="M171.92,280.52,182.23,282s.06,28.88.43,32.44,5.28,7.11,5.28,7.11H168.57C173.61,313,171.92,280.52,171.92,280.52Z" style="fill:#263238"></path><path d="M142.08,275.35l-1.23-7.18a2.11,2.11,0,0,1,.4-2.1,1.38,1.38,0,0,1,.7-.33c1.57-.27,2.72,1.63,4.24,1.61.9-1.36-.1-3.29-1.16-4.49s-2.43-2.77-1.91-4.49a2.5,2.5,0,0,1,1.68-1.69,5.45,5.45,0,0,1,3.8.71c.78-2.19-1.64-3.9-3.06-5.79-.87-1.16,0-2.95,1.29-2.7l4.88.92a2.38,2.38,0,0,0,1.42-.13c1.82-.77,1.44-3.23.61-4.82-.32-.63-.71-1.24-1-1.88a1.82,1.82,0,0,1,1.24-2.68,12.54,12.54,0,0,1,3.17.26c1-2-.91-4.37-2.69-5.54a12.24,12.24,0,0,1-2.45-2c-1.05-1.21-.46-3.3,1-3.56l3.52-.63a2,2,0,0,0,.9-.36c1.33-1,.64-2.87-.26-4-.27-.33-.57-.67-.84-1a1.47,1.47,0,0,1,.85-2.39l1.07-.07a24.6,24.6,0,0,1-1.59-4.51c-.48-1.9,1-3.7,2.65-3.26l2.24.59a1.4,1.4,0,0,0,.88,0,1.24,1.24,0,0,0,.66-1c.6-2.92-4.16-4.46-3.63-7.4.39-2.13,3-2.16,4.82-1.66a39.29,39.29,0,0,0-1.26-8.09,1.13,1.13,0,0,1,1-1.49l2.75.07a1.11,1.11,0,0,0,.85-.23,1.25,1.25,0,0,0,.26-.77c.09-1.6-.9-3-1.3-4.5s.46-3.77,1.77-3.29c1.76-.83,3,.43,3.48-1.41a3,3,0,0,0,.09-1c-.17-2.07-1.89-3.35-2.31-5.29a8.31,8.31,0,0,1,.25-3.53,1.92,1.92,0,0,1,.47-1.05,2.59,2.59,0,0,1,1-.34c1.67-.5,1.8-3.21,1.33-5.14a10.22,10.22,0,0,1-.43-4.54,1.23,1.23,0,0,1,1.5-1,6,6,0,0,1,2,1c.86-1.84.34-4.23,1.31-6.06a2.6,2.6,0,0,1,1-1.06c1.48-.87,2.74.64,2.94,2.19a9.09,9.09,0,0,1-.5,3.61c.91-.53,2.06.26,2.48,1.34a7.81,7.81,0,0,1,.2,3.51c-.21,2.2-.43,4.4-.64,6.59.7-1.24,2.53-.76,3.19.52a6.82,6.82,0,0,1,.17,4.34,14,14,0,0,0-.11,5.91c2.07,1.1,2.29-1.67,3.95-1.34a2.14,2.14,0,0,1,1.56,1.87c.4,2.56-.41,5-.33,7.44,1.6-.56,3.4,1.46,3,3.34-.26,1.15-1.14,2-1.19,3.26a1.54,1.54,0,0,0,.55,1.33c.88.63,1.43-.79,2.35,0a1.7,1.7,0,0,1,.55,1.42c-.09,1.51-1.28,2.47-1.43,4a1.87,1.87,0,0,0,.45,1.47c.56.56,1,.17,1.56.11,1.21-.15,2,1.58,1.82,3a11.74,11.74,0,0,1-1.72,3.69,4.51,4.51,0,0,0-.5,4c1-.85,1.51-2.42,2.67-3.17a1.56,1.56,0,0,1,1.44-.19c1,.43,1.12,1.81,1,2.94a20.78,20.78,0,0,1-2.22,8.15c1.45,1.33,3.08-3.08,4.79-1.91a1.89,1.89,0,0,1,.7,1.68,23,23,0,0,1-3.78,11.3,2,2,0,0,1,2.19-.71,2.6,2.6,0,0,1,1.58,2.44c0,1.56-1.19,2.71-1.93,4s-.7,3.61.63,3.86,2-1.94,3.25-2.71c1.44-.91,3.31.64,3.64,2.51a8.81,8.81,0,0,1-1.24,5.4,15.91,15.91,0,0,0-2,5.16l.51.33c2-1.87,4.23.37,3.55,2.56a9.54,9.54,0,0,0-.59,2.78l.06,1.41c.05,2.37,2,4.47,4,4.4a3.88,3.88,0,0,1,4,2.14c.83,2,.12,4.68-1.66,5.61a4.65,4.65,0,0,0-1.36,1c-1.61,1.8-.35,3,.06,4.43a4.47,4.47,0,0,1-1.89,4.75,6.07,6.07,0,0,1-4.76.47,7.29,7.29,0,0,0-3.11-.45c-1.93.92-.42,3.4-2.27,5.69a4.67,4.67,0,0,1-1.93,1.29c-2.18.7-3.67-.17-4.88-1.65a5.62,5.62,0,0,0-2-1.62c-.82-.34-1.68.41-1.66,1.42a8.72,8.72,0,0,1-1.05,5,3,3,0,0,1-2.49,1.51c-1.95,0-2.93-2.32-3.73-4.24-1-2.36-2.85-5.06-5.48-2.53a4.54,4.54,0,0,0-1.21,2.42c-.39,2-2.55,4.93-4.31,3.65-1.44-1.06-1-4.06-3.1-4.55a2.26,2.26,0,0,0-1.77.38c-2.18,1.46-2.5,4.91-4.91,6a2,2,0,0,1-2.44-.61c-.71-.95-.28-1.88-.2-2.82a4.86,4.86,0,0,0-3.19-4.68c-1.76-.68-3.66-.54-5.5-.79a5.86,5.86,0,0,1-4.74-2.89c-.34-.69-.52-1.48-.89-2.15-1.07-1.95-3.36-2.26-5.34-2.55s-4.29-1.09-4.86-3.31C137.17,276.28,140.24,273.77,142.08,275.35Z" style="fill:#407BFF"></path><g style="opacity:0.7000000000000001"><path d="M142.08,275.35l-1.23-7.18a2.11,2.11,0,0,1,.4-2.1,1.38,1.38,0,0,1,.7-.33c1.57-.27,2.72,1.63,4.24,1.61.9-1.36-.1-3.29-1.16-4.49s-2.43-2.77-1.91-4.49a2.5,2.5,0,0,1,1.68-1.69,5.45,5.45,0,0,1,3.8.71c.78-2.19-1.64-3.9-3.06-5.79-.87-1.16,0-2.95,1.29-2.7l4.88.92a2.38,2.38,0,0,0,1.42-.13c1.82-.77,1.44-3.23.61-4.82-.32-.63-.71-1.24-1-1.88a1.82,1.82,0,0,1,1.24-2.68,12.54,12.54,0,0,1,3.17.26c1-2-.91-4.37-2.69-5.54a12.24,12.24,0,0,1-2.45-2c-1.05-1.21-.46-3.3,1-3.56l3.52-.63a2,2,0,0,0,.9-.36c1.33-1,.64-2.87-.26-4-.27-.33-.57-.67-.84-1a1.47,1.47,0,0,1,.85-2.39l1.07-.07a24.6,24.6,0,0,1-1.59-4.51c-.48-1.9,1-3.7,2.65-3.26l2.24.59a1.4,1.4,0,0,0,.88,0,1.24,1.24,0,0,0,.66-1c.6-2.92-4.16-4.46-3.63-7.4.39-2.13,3-2.16,4.82-1.66a39.29,39.29,0,0,0-1.26-8.09,1.13,1.13,0,0,1,1-1.49l2.75.07a1.11,1.11,0,0,0,.85-.23,1.25,1.25,0,0,0,.26-.77c.09-1.6-.9-3-1.3-4.5s.46-3.77,1.77-3.29c1.76-.83,3,.43,3.48-1.41a3,3,0,0,0,.09-1c-.17-2.07-1.89-3.35-2.31-5.29a8.31,8.31,0,0,1,.25-3.53,1.92,1.92,0,0,1,.47-1.05,2.59,2.59,0,0,1,1-.34c1.67-.5,1.8-3.21,1.33-5.14a10.22,10.22,0,0,1-.43-4.54,1.23,1.23,0,0,1,1.5-1,6,6,0,0,1,2,1c.86-1.84.34-4.23,1.31-6.06a2.6,2.6,0,0,1,1-1.06c1.48-.87,2.74.64,2.94,2.19a9.09,9.09,0,0,1-.5,3.61c.91-.53,2.06.26,2.48,1.34a7.81,7.81,0,0,1,.2,3.51c-.21,2.2-.43,4.4-.64,6.59.7-1.24,2.53-.76,3.19.52a6.82,6.82,0,0,1,.17,4.34,14,14,0,0,0-.11,5.91c2.07,1.1,2.29-1.67,3.95-1.34a2.14,2.14,0,0,1,1.56,1.87c.4,2.56-.41,5-.33,7.44,1.6-.56,3.4,1.46,3,3.34-.26,1.15-1.14,2-1.19,3.26a1.54,1.54,0,0,0,.55,1.33c.88.63,1.43-.79,2.35,0a1.7,1.7,0,0,1,.55,1.42c-.09,1.51-1.28,2.47-1.43,4a1.87,1.87,0,0,0,.45,1.47c.56.56,1,.17,1.56.11,1.21-.15,2,1.58,1.82,3a11.74,11.74,0,0,1-1.72,3.69,4.51,4.51,0,0,0-.5,4c1-.85,1.51-2.42,2.67-3.17a1.56,1.56,0,0,1,1.44-.19c1,.43,1.12,1.81,1,2.94a20.78,20.78,0,0,1-2.22,8.15c1.45,1.33,3.08-3.08,4.79-1.91a1.89,1.89,0,0,1,.7,1.68,23,23,0,0,1-3.78,11.3,2,2,0,0,1,2.19-.71,2.6,2.6,0,0,1,1.58,2.44c0,1.56-1.19,2.71-1.93,4s-.7,3.61.63,3.86,2-1.94,3.25-2.71c1.44-.91,3.31.64,3.64,2.51a8.81,8.81,0,0,1-1.24,5.4,15.91,15.91,0,0,0-2,5.16l.51.33c2-1.87,4.23.37,3.55,2.56a9.54,9.54,0,0,0-.59,2.78l.06,1.41c.05,2.37,2,4.47,4,4.4a3.88,3.88,0,0,1,4,2.14c.83,2,.12,4.68-1.66,5.61a4.65,4.65,0,0,0-1.36,1c-1.61,1.8-.35,3,.06,4.43a4.47,4.47,0,0,1-1.89,4.75,6.07,6.07,0,0,1-4.76.47,7.29,7.29,0,0,0-3.11-.45c-1.93.92-.42,3.4-2.27,5.69a4.67,4.67,0,0,1-1.93,1.29c-2.18.7-3.67-.17-4.88-1.65a5.62,5.62,0,0,0-2-1.62c-.82-.34-1.68.41-1.66,1.42a8.72,8.72,0,0,1-1.05,5,3,3,0,0,1-2.49,1.51c-1.95,0-2.93-2.32-3.73-4.24-1-2.36-2.85-5.06-5.48-2.53a4.54,4.54,0,0,0-1.21,2.42c-.39,2-2.55,4.93-4.31,3.65-1.44-1.06-1-4.06-3.1-4.55a2.26,2.26,0,0,0-1.77.38c-2.18,1.46-2.5,4.91-4.91,6a2,2,0,0,1-2.44-.61c-.71-.95-.28-1.88-.2-2.82a4.86,4.86,0,0,0-3.19-4.68c-1.76-.68-3.66-.54-5.5-.79a5.86,5.86,0,0,1-4.74-2.89c-.34-.69-.52-1.48-.89-2.15-1.07-1.95-3.36-2.26-5.34-2.55s-4.29-1.09-4.86-3.31C137.17,276.28,140.24,273.77,142.08,275.35Z" style="fill:#fff"></path></g><path d="M316.27,284.2l9.38,1.34s.06,26.29.39,29.53,4.82,6.47,4.82,6.47H313.23C317.81,313.72,316.27,284.2,316.27,284.2Z" style="fill:#263238"></path><path d="M289.11,279.5q-.56-3.27-1.12-6.54a1.92,1.92,0,0,1,.36-1.91,1.28,1.28,0,0,1,.64-.31c1.43-.24,2.48,1.49,3.86,1.48.82-1.24-.09-3-1.06-4.09s-2.21-2.52-1.74-4.09a2.29,2.29,0,0,1,1.53-1.54,5,5,0,0,1,3.46.65c.72-2-1.49-3.55-2.78-5.28-.79-1.05,0-2.67,1.17-2.45l4.45.84a2.19,2.19,0,0,0,1.29-.12c1.65-.7,1.31-2.94.55-4.39-.29-.57-.64-1.13-.93-1.71a1.65,1.65,0,0,1,1.13-2.44,11.61,11.61,0,0,1,2.88.24c.95-1.86-.82-4-2.44-5.05a10.71,10.71,0,0,1-2.23-1.83,2,2,0,0,1,.91-3.24l3.21-.58a2,2,0,0,0,.82-.33c1.2-.87.57-2.61-.25-3.62l-.76-.92a1.35,1.35,0,0,1,.77-2.18l1-.05a23.3,23.3,0,0,1-1.45-4.11c-.43-1.73.9-3.37,2.42-3l2,.53a1.3,1.3,0,0,0,.8,0,1.19,1.19,0,0,0,.61-.88c.54-2.65-3.79-4.06-3.31-6.73.35-1.95,2.72-2,4.39-1.52a35.72,35.72,0,0,0-1.15-7.36,1,1,0,0,1,.88-1.35l2.5.05a1,1,0,0,0,.77-.21,1.09,1.09,0,0,0,.23-.7c.09-1.45-.81-2.7-1.18-4.09s.42-3.43,1.62-3c1.59-.75,2.7.4,3.16-1.28a3,3,0,0,0,.09-.94c-.16-1.87-1.73-3-2.11-4.81a7.61,7.61,0,0,1,.23-3.21,1.7,1.7,0,0,1,.43-1,2.13,2.13,0,0,1,.9-.3c1.52-.46,1.63-2.93,1.21-4.68a9.29,9.29,0,0,1-.39-4.14,1.11,1.11,0,0,1,1.37-.88,5.19,5.19,0,0,1,1.77.93c.79-1.67.32-3.84,1.2-5.51a2.43,2.43,0,0,1,.88-1c1.34-.79,2.49.59,2.67,2a8.24,8.24,0,0,1-.46,3.29c.83-.49,1.88.23,2.26,1.22a6.83,6.83,0,0,1,.18,3.19c-.19,2-.39,4-.58,6,.64-1.13,2.31-.7,2.9.47a6.11,6.11,0,0,1,.16,4,12.85,12.85,0,0,0-.1,5.38c1.89,1,2.08-1.52,3.6-1.22a1.94,1.94,0,0,1,1.41,1.7c.37,2.33-.37,4.58-.3,6.78,1.46-.51,3.1,1.33,2.7,3-.24,1-1,1.82-1.09,3a1.41,1.41,0,0,0,.51,1.2c.8.58,1.3-.72,2.13,0a1.56,1.56,0,0,1,.51,1.3c-.08,1.38-1.17,2.24-1.31,3.6a1.7,1.7,0,0,0,.42,1.34c.5.52.94.16,1.41.1,1.1-.13,1.86,1.44,1.66,2.7a10.78,10.78,0,0,1-1.56,3.37,4.12,4.12,0,0,0-.46,3.62c.95-.78,1.37-2.21,2.43-2.89a1.43,1.43,0,0,1,1.31-.17c.9.39,1,1.64.95,2.68a18.71,18.71,0,0,1-2,7.41c1.31,1.21,2.8-2.8,4.36-1.73a1.71,1.71,0,0,1,.63,1.53,21,21,0,0,1-3.43,10.28,1.87,1.87,0,0,1,2-.65,2.34,2.34,0,0,1,1.44,2.23c0,1.42-1.08,2.46-1.75,3.65s-.64,3.29.57,3.52,1.85-1.77,3-2.47c1.31-.83,3,.59,3.32,2.29a8,8,0,0,1-1.13,4.91,14.78,14.78,0,0,0-1.87,4.69l.47.31c1.86-1.71,3.85.33,3.23,2.33a8.73,8.73,0,0,0-.53,2.53l0,1.29c0,2.15,1.77,4.06,3.62,4a3.53,3.53,0,0,1,3.66,1.95c.76,1.79.11,4.25-1.51,5.1a4.33,4.33,0,0,0-1.24.9c-1.46,1.64-.31,2.74.06,4a4.06,4.06,0,0,1-1.72,4.31,5.51,5.51,0,0,1-4.34.44,6.73,6.73,0,0,0-2.82-.42c-1.76.85-.39,3.1-2.07,5.19a4.39,4.39,0,0,1-1.75,1.17,3.8,3.8,0,0,1-4.45-1.5A5.1,5.1,0,0,0,337,292.4c-.75-.32-1.53.36-1.51,1.29a8,8,0,0,1-1,4.56,2.7,2.7,0,0,1-2.27,1.37c-1.77,0-2.66-2.11-3.39-3.86-.9-2.14-2.59-4.6-5-2.3a4.12,4.12,0,0,0-1.1,2.2c-.36,1.84-2.33,4.49-3.92,3.32-1.32-1-1-3.7-2.82-4.14a2.06,2.06,0,0,0-1.62.35c-2,1.33-2.27,4.47-4.46,5.49a1.78,1.78,0,0,1-2.22-.56c-.65-.86-.26-1.71-.19-2.57a4.4,4.4,0,0,0-2.91-4.25c-1.59-.62-3.33-.5-5-.72a5.34,5.34,0,0,1-4.31-2.63c-.31-.63-.47-1.35-.81-2-1-1.77-3.06-2.06-4.86-2.32s-3.91-1-4.43-3C284.63,280.34,287.44,278.06,289.11,279.5Z" style="fill:#407BFF"></path><g style="opacity:0.7000000000000001"><path d="M289.11,279.5q-.56-3.27-1.12-6.54a1.92,1.92,0,0,1,.36-1.91,1.28,1.28,0,0,1,.64-.31c1.43-.24,2.48,1.49,3.86,1.48.82-1.24-.09-3-1.06-4.09s-2.21-2.52-1.74-4.09a2.29,2.29,0,0,1,1.53-1.54,5,5,0,0,1,3.46.65c.72-2-1.49-3.55-2.78-5.28-.79-1.05,0-2.67,1.17-2.45l4.45.84a2.19,2.19,0,0,0,1.29-.12c1.65-.7,1.31-2.94.55-4.39-.29-.57-.64-1.13-.93-1.71a1.65,1.65,0,0,1,1.13-2.44,11.61,11.61,0,0,1,2.88.24c.95-1.86-.82-4-2.44-5.05a10.71,10.71,0,0,1-2.23-1.83,2,2,0,0,1,.91-3.24l3.21-.58a2,2,0,0,0,.82-.33c1.2-.87.57-2.61-.25-3.62l-.76-.92a1.35,1.35,0,0,1,.77-2.18l1-.05a23.3,23.3,0,0,1-1.45-4.11c-.43-1.73.9-3.37,2.42-3l2,.53a1.3,1.3,0,0,0,.8,0,1.19,1.19,0,0,0,.61-.88c.54-2.65-3.79-4.06-3.31-6.73.35-1.95,2.72-2,4.39-1.52a35.72,35.72,0,0,0-1.15-7.36,1,1,0,0,1,.88-1.35l2.5.05a1,1,0,0,0,.77-.21,1.09,1.09,0,0,0,.23-.7c.09-1.45-.81-2.7-1.18-4.09s.42-3.43,1.62-3c1.59-.75,2.7.4,3.16-1.28a3,3,0,0,0,.09-.94c-.16-1.87-1.73-3-2.11-4.81a7.61,7.61,0,0,1,.23-3.21,1.7,1.7,0,0,1,.43-1,2.13,2.13,0,0,1,.9-.3c1.52-.46,1.63-2.93,1.21-4.68a9.29,9.29,0,0,1-.39-4.14,1.11,1.11,0,0,1,1.37-.88,5.19,5.19,0,0,1,1.77.93c.79-1.67.32-3.84,1.2-5.51a2.43,2.43,0,0,1,.88-1c1.34-.79,2.49.59,2.67,2a8.24,8.24,0,0,1-.46,3.29c.83-.49,1.88.23,2.26,1.22a6.83,6.83,0,0,1,.18,3.19c-.19,2-.39,4-.58,6,.64-1.13,2.31-.7,2.9.47a6.11,6.11,0,0,1,.16,4,12.85,12.85,0,0,0-.1,5.38c1.89,1,2.08-1.52,3.6-1.22a1.94,1.94,0,0,1,1.41,1.7c.37,2.33-.37,4.58-.3,6.78,1.46-.51,3.1,1.33,2.7,3-.24,1-1,1.82-1.09,3a1.41,1.41,0,0,0,.51,1.2c.8.58,1.3-.72,2.13,0a1.56,1.56,0,0,1,.51,1.3c-.08,1.38-1.17,2.24-1.31,3.6a1.7,1.7,0,0,0,.42,1.34c.5.52.94.16,1.41.1,1.1-.13,1.86,1.44,1.66,2.7a10.78,10.78,0,0,1-1.56,3.37,4.12,4.12,0,0,0-.46,3.62c.95-.78,1.37-2.21,2.43-2.89a1.43,1.43,0,0,1,1.31-.17c.9.39,1,1.64.95,2.68a18.71,18.71,0,0,1-2,7.41c1.31,1.21,2.8-2.8,4.36-1.73a1.71,1.71,0,0,1,.63,1.53,21,21,0,0,1-3.43,10.28,1.87,1.87,0,0,1,2-.65,2.34,2.34,0,0,1,1.44,2.23c0,1.42-1.08,2.46-1.75,3.65s-.64,3.29.57,3.52,1.85-1.77,3-2.47c1.31-.83,3,.59,3.32,2.29a8,8,0,0,1-1.13,4.91,14.78,14.78,0,0,0-1.87,4.69l.47.31c1.86-1.71,3.85.33,3.23,2.33a8.73,8.73,0,0,0-.53,2.53l0,1.29c0,2.15,1.77,4.06,3.62,4a3.53,3.53,0,0,1,3.66,1.95c.76,1.79.11,4.25-1.51,5.1a4.33,4.33,0,0,0-1.24.9c-1.46,1.64-.31,2.74.06,4a4.06,4.06,0,0,1-1.72,4.31,5.51,5.51,0,0,1-4.34.44,6.73,6.73,0,0,0-2.82-.42c-1.76.85-.39,3.1-2.07,5.19a4.39,4.39,0,0,1-1.75,1.17,3.8,3.8,0,0,1-4.45-1.5A5.1,5.1,0,0,0,337,292.4c-.75-.32-1.53.36-1.51,1.29a8,8,0,0,1-1,4.56,2.7,2.7,0,0,1-2.27,1.37c-1.77,0-2.66-2.11-3.39-3.86-.9-2.14-2.59-4.6-5-2.3a4.12,4.12,0,0,0-1.1,2.2c-.36,1.84-2.33,4.49-3.92,3.32-1.32-1-1-3.7-2.82-4.14a2.06,2.06,0,0,0-1.62.35c-2,1.33-2.27,4.47-4.46,5.49a1.78,1.78,0,0,1-2.22-.56c-.65-.86-.26-1.71-.19-2.57a4.4,4.4,0,0,0-2.91-4.25c-1.59-.62-3.33-.5-5-.72a5.34,5.34,0,0,1-4.31-2.63c-.31-.63-.47-1.35-.81-2-1-1.77-3.06-2.06-4.86-2.32s-3.91-1-4.43-3C284.63,280.34,287.44,278.06,289.11,279.5Z" style="fill:#fff"></path></g></g><g id="freepik--character-2--inject-22"><path d="M505.52,207.41s-4.21-4.55-7.35-15.33c0,0-.62.08-.63.07-.44-1.5-.8-2.92-1.08-4.18l0,0-7.57,15.6c2.14,2.73,4.66,9,5.55,11.79,0,0,1.16,5.31,7,1.86C505.69,214.67,505.52,207.41,505.52,207.41Z" style="fill:#ce7a63"></path><path d="M491.25,207.76l6.15-6.16c.76,2.64.46,6.54-4.39,9.92A25.84,25.84,0,0,0,491.25,207.76Z" style="opacity:0.2"></path><path d="M466.6,187.47c.36,3.81,3.86,10.48,7.62,6.25S466,180.92,466.6,187.47Z" style="fill:#263238"></path><path d="M492.7,181.82c4.17,8.43,6.69,13.1,4.95,19.61-2.63,9.78-14.55,11.78-21.18,4.75-6-6.34-11.78-19.06-5.6-26.81A13,13,0,0,1,492.7,181.82Z" style="fill:#ce7a63"></path><path d="M488.52,171.47c-3.69-3.85-15.37,2.52-17.2,6.61-.27.61,8.31.14,7.82.22l3.76-.71c.42-.39,1.69-.36,3.05.85,0,0,3.75,9.31,9.36,10.9,2.6-3.66,2.74-5.66,1.95-9.12C496.07,175.06,491.79,172.9,488.52,171.47Z" style="fill:#263238"></path><path d="M482.39,190.9c.48.83.42,1.75-.13,2.06s-1.38-.12-1.86-1-.42-1.76.13-2.07S481.91,190.06,482.39,190.9Z" style="fill:#263238"></path><path d="M474.62,195.7c.48.84.42,1.76-.13,2.07s-1.38-.12-1.86-1-.42-1.76.13-2.07S474.14,194.87,474.62,195.7Z" style="fill:#263238"></path><path d="M476.7,193.72s-.26,5.65-.14,7.82c1.76.38,3.48-1.24,3.48-1.24Z" style="fill:#ad6359"></path><path d="M482.17,185.76a.46.46,0,0,1-.42.17,3.62,3.62,0,0,0-3.12.95.47.47,0,0,1-.64,0,.45.45,0,0,1,0-.63,4.52,4.52,0,0,1,3.93-1.25.44.44,0,0,1,.38.51A.4.4,0,0,1,482.17,185.76Z" style="fill:#263238"></path><path d="M487.86,195.49l-5.34,6.77a11.47,11.47,0,0,0,2.78,1.22,3.52,3.52,0,0,0,2.76-.51,3.65,3.65,0,0,0,1.72-3.63A8.35,8.35,0,0,0,487.86,195.49Z"></path><path d="M483,201.72s1,.55,1.53.4,4.27-5.41,4.27-5.41l-.89-1.22Z" style="fill:#fff"></path><path d="M487.11,203.41a3.54,3.54,0,0,1,.61-2.91,3.7,3.7,0,0,1,2-1.66,3.76,3.76,0,0,1-.5,3.06A3.49,3.49,0,0,1,487.11,203.41Z" style="fill:#de5753"></path><path d="M468.68,194.25a.46.46,0,0,1-.26,0,.45.45,0,0,1-.31-.56,4.42,4.42,0,0,1,2.73-3,.45.45,0,0,1,.56.3.44.44,0,0,1-.29.56A3.43,3.43,0,0,0,469,194,.43.43,0,0,1,468.68,194.25Z" style="fill:#263238"></path><path d="M460.81,196.54a12.65,12.65,0,0,0,6.11-.13c1.08-.38,5.09-4,5.09-4s11.21-10.81,13.18-10.64,6.21,7,6.21,7l.37-.12,7-1.27s-.28-3.63-.61-6.24-1.21-8.64-1.21-8.64l-16.63,6.49Z" style="fill:#263238"></path><path d="M460.81,196.54a.87.87,0,0,0-.23-1c-2.72-2.67-.86-17.45,10.19-24.65,13.21-8.61,23.11-1.45,25.1,0l1,1.47S483.68,178,482.25,179c-4.3,3-13.91,13-17.54,15.75C461.68,197.08,460.81,196.54,460.81,196.54Z" style="fill:#407BFF"></path><path d="M499.81,186.76a8.82,8.82,0,0,1-1.26,6.69c-1.73,2.6-4.66,1.54-5.9-1.16-1.12-2.43-1.56-6.7,1-8.37S499.18,183.94,499.81,186.76Z" style="fill:#ce7a63"></path><path d="M494.34,190.4a.25.25,0,0,1-.23-.15,4.92,4.92,0,0,1-.37-2.51,3.17,3.17,0,0,1,.88-2,2,2,0,0,1,2.15-.42.26.26,0,0,1,.11.34.25.25,0,0,1-.33.11,1.49,1.49,0,0,0-1.59.33,2.76,2.76,0,0,0-.73,1.66,4.49,4.49,0,0,0,.34,2.26.26.26,0,0,1-.13.33Z" style="opacity:0.2"></path><path d="M490.72,170.65c-3-.29-6.17,1-9.06,2.46-6.54,3.26-13,7.55-16.82,13.6-.3.47-2.84,4.2-2.43,4.68s2.8-2.79,3.12-3.16a63.58,63.58,0,0,1,5.3-5.34,65.66,65.66,0,0,1,12.33-8.73c1.22-.66,2.47-1.29,3.73-1.88C487.73,171.89,489.85,170.57,490.72,170.65Z" style="fill:#263238"></path><path d="M467.77,179.26a33.17,33.17,0,0,0,2.29-2.46.34.34,0,0,0,.1-.31c0-.11-.17-.15-.29-.17a3,3,0,0,0-2,.6,6.91,6.91,0,0,0-2.86,3.73,4,4,0,0,0-.24,1.7c.29.85,1-.17,1.29-.58C466.67,181,467.16,179.91,467.77,179.26Z" style="fill:#263238"></path><path d="M480.2,169.69a4.3,4.3,0,0,0-1.51.23,13.87,13.87,0,0,0-2.81,1.1,14.31,14.31,0,0,0-3.2,2c-.27.23-.47.92-.19,1.15a.65.65,0,0,0,.62,0,54.8,54.8,0,0,0,7.18-3.41c.28-.15.6-.42.5-.72S480.44,169.71,480.2,169.69Z" style="fill:#263238"></path><path d="M489.75,186.27s6.12,14.82,5.65,16.12c-2,5.39-5.28,7.29-5.28,7.29s.57.32,2.4-1.13,3.89-3.18,4.38-5.07-2.72-9.87-3.18-12.08a62.47,62.47,0,0,0-1.88-6.21Z" style="fill:#263238"></path><polygon points="496.11 200.19 499.08 194.96 498.56 193.45 495.7 198.12 496.11 200.19" style="fill:#263238"></polygon><path d="M457.83,188.79h0a.24.24,0,0,1-.21-.28,26.87,26.87,0,0,1,6.71-14.44.25.25,0,0,1,.35,0,.26.26,0,0,1,0,.36,26.28,26.28,0,0,0-6.58,14.17A.27.27,0,0,1,457.83,188.79Z" style="fill:#407BFF"></path><polygon points="559.63 442.57 555.77 445.85 548.43 442.85 544.66 427.05 558.74 424 559.63 442.57" style="fill:#ce7a63"></polygon><path d="M546.71,441.09l3.67-.16a2.59,2.59,0,0,1,2.14,1c2.24,2.8,3.79,1.64,6-1.18,1.46-.24,1.92,1.42,2.06,1.87l3.19,9.86a1.57,1.57,0,0,1-1,2,1.42,1.42,0,0,1-.45.08l-12.12.54-17,.75c-4.62.21-5.79-4.41-3.9-4.93,8.48-2.27,14.44-5.06,17-7.67C546.75,442.77,546.23,442.46,546.71,441.09Z" style="fill:#407BFF"></path><path d="M547.49,446.16a.23.23,0,0,1-.2-.11,4.18,4.18,0,0,0-3-1.77A.25.25,0,0,1,544,444a.24.24,0,0,1,.28-.22,4.7,4.7,0,0,1,3.39,2,.26.26,0,0,1-.07.35A.24.24,0,0,1,547.49,446.16Z" style="fill:#263238"></path><path d="M545.28,448a.25.25,0,0,1-.2-.1,4.18,4.18,0,0,0-3-1.77.25.25,0,0,1-.22-.27.24.24,0,0,1,.27-.23,4.73,4.73,0,0,1,3.39,2,.25.25,0,0,1-.06.35A.28.28,0,0,1,545.28,448Z" style="fill:#263238"></path><path d="M542.51,449.54a.25.25,0,0,1-.21-.1,4.17,4.17,0,0,0-3-1.77.25.25,0,0,1-.23-.27.24.24,0,0,1,.27-.23,4.73,4.73,0,0,1,3.39,2,.25.25,0,0,1-.06.35A.23.23,0,0,1,542.51,449.54Z" style="fill:#263238"></path><path d="M549.45,280.39c-1.07,1.28-8.57,73.8-8.57,73.8s-.54,80.44.84,79.5l20.4-.95,6.2-79.24,17.15-71.38s13-19.11,4.19-30.89l-43,10Z" style="fill:#263238"></path><path d="M549.45,280.39c-1.07,1.28-8.57,73.8-8.57,73.8s-.54,80.44.84,79.5l20.4-.95,6.2-79.24,17.15-71.38s13-19.11,4.19-30.89l-43,10Z" style="opacity:0.30000000000000004"></path><path d="M546.85,299.27c.8-.94,39.43-15.31,38-14.8s-2.45,10.23-2.45,10.23L546.21,304Z"></path><g id="freepik--freepik--Character--inject-280--inject-22"><path d="M626.19,338.67a59.26,59.26,0,1,1-59.26,59.26,59.32,59.32,0,0,1,59.26-59.26m0-8.5h0a67.77,67.77,0,0,0-67.77,67.76h0a67.77,67.77,0,1,0,67.76-67.77Z" style="fill:#263238"></path><path d="M626.19,341.2a56.78,56.78,0,0,1,56.71,56.73h0a56.73,56.73,0,1,1-56.71-56.74m-64.86,56.73a64.86,64.86,0,1,0,64.86-64.86A64.86,64.86,0,0,0,561.33,397.93Z" style="fill:#407BFF"></path><path d="M422.62,338.67a59.33,59.33,0,0,1,59.26,59.26h0a59.26,59.26,0,1,1-59.25-59.27m0-8.5a67.76,67.76,0,1,0,67.77,67.76,67.76,67.76,0,0,0-67.77-67.76Z" style="fill:#263238"></path><path d="M422.63,341.2a56.79,56.79,0,0,1,56.72,56.73h0a56.73,56.73,0,1,1-56.72-56.74m-64.85,56.73a64.86,64.86,0,1,0,64.85-64.86A64.85,64.85,0,0,0,357.78,397.93Z" style="fill:#407BFF"></path><circle cx="626.19" cy="397.93" r="10.45" transform="translate(136.28 955.1) rotate(-81.11)" style="fill:#263238"></circle><circle cx="422.63" cy="397.93" r="10.45" transform="translate(-157.59 415.4) rotate(-45)" style="fill:#263238"></circle><path d="M626.21,390.62a7.27,7.27,0,0,1,1.94,14.27H628L538.61,433.6a12.59,12.59,0,0,1-6.24-24.4L624,390.93h.23a7.26,7.26,0,0,1,2-.27h0m0-3.24a10.33,10.33,0,0,0-2.82.4l-91.71,18.33a15.78,15.78,0,0,0,3.88,31.07,16.19,16.19,0,0,0,3.92-.49L629,408a10.47,10.47,0,0,0-2.78-20.59Z" style="fill:#263238"></path><path d="M533.07,423.46l-90.5-110.79a3.19,3.19,0,0,1,4.93-4l87.19,106.68L589.4,285.72a3.19,3.19,0,0,1,5.88,2.48L538.51,422.71a3.21,3.21,0,0,1-2.49,1.92h-.46A3.17,3.17,0,0,1,533.07,423.46Z" style="fill:#407BFF"></path><path d="M624.26,398.83,581.6,308.75l-.09-.2a2.13,2.13,0,0,1,3.93-1.62L628.11,397a2.13,2.13,0,1,1-3.85,1.82Z" style="fill:#407BFF"></path><path d="M421.84,401a3.18,3.18,0,0,1-2.3-3.88l26.28-102.25a3.2,3.2,0,0,1,3.39-2.39l134.61,12.18a3.2,3.2,0,0,1-.58,6.38L451.33,299.09l-25.6,99.63a3.2,3.2,0,0,1-3.1,2.4A3,3,0,0,1,421.84,401Z" style="fill:#407BFF"></path><path d="M542.92,455.87l-18.8-67.77a2.13,2.13,0,0,1,4.1-1.13l18.8,67.8a2.22,2.22,0,0,1,.07.57,2.12,2.12,0,0,1-4.17.53Z" style="fill:#263238"></path><path d="M518.76,387.54a2.14,2.14,0,0,1,2.13-2.13h18.79a2.13,2.13,0,0,1,0,4.26H520.89A2.13,2.13,0,0,1,518.76,387.54Z" style="fill:#263238"></path><path d="M536.24,457a2.13,2.13,0,0,1,2.13-2.13h18.78a2.13,2.13,0,1,1,0,4.25H538.37A2.12,2.12,0,0,1,536.24,457Z" style="fill:#263238"></path><g style="opacity:0.30000000000000004"><path d="M533.07,423.46l-90.5-110.79a3.19,3.19,0,0,1,4.93-4l87.19,106.68L589.4,285.72a3.19,3.19,0,0,1,5.88,2.48L538.51,422.71a3.21,3.21,0,0,1-2.49,1.92h-.46A3.17,3.17,0,0,1,533.07,423.46Z"></path><path d="M624.26,398.83,581.6,308.75l-.09-.2a2.13,2.13,0,0,1,3.93-1.62L628.11,397a2.13,2.13,0,1,1-3.85,1.82Z"></path><path d="M421.84,401a3.18,3.18,0,0,1-2.3-3.88l26.28-102.25a3.2,3.2,0,0,1,3.39-2.39l134.61,12.18a3.2,3.2,0,0,1-.58,6.38L451.33,299.09l-25.6,99.63a3.2,3.2,0,0,1-3.1,2.4A3,3,0,0,1,421.84,401Z"></path></g><path d="M600.37,274.76c-5,1.95-40.68-.23-43.12,5.32s13.83.83,21,3.19,30.67,10.27,36.23,3.19C624,274.28,610.89,270.62,600.37,274.76Z" style="fill:#407BFF"></path><path d="M373.05,404.79a.38.38,0,0,1-.37-.32,48,48,0,0,1,23.11-49,.37.37,0,0,1,.37.65,47.24,47.24,0,0,0-22.74,48.18.36.36,0,0,1-.31.43Z" style="fill:#263238"></path><path d="M457.39,423.05a.4.4,0,0,1-.27-.11.38.38,0,0,1,0-.53,24.49,24.49,0,0,0,5.55-9.22,27,27,0,0,0,1.84-10.72.36.36,0,0,1,.34-.4.38.38,0,0,1,.41.33,27.85,27.85,0,0,1-1.88,11.05,25.33,25.33,0,0,1-5.72,9.48A.39.39,0,0,1,457.39,423.05Z" style="fill:#263238"></path><path d="M667.11,367.69a.38.38,0,0,1-.31-.16,47.23,47.23,0,0,0-49.74-19.11.37.37,0,0,1-.17-.73,48,48,0,0,1,50.53,19.41.37.37,0,0,1-.1.52A.33.33,0,0,1,667.11,367.69Z" style="fill:#263238"></path><path d="M623.11,440.06a32.18,32.18,0,0,1-8.44-1.26,25.29,25.29,0,0,1-9.89-5,.38.38,0,1,1,.49-.57,24.49,24.49,0,0,0,9.6,4.85,27,27,0,0,0,10.82,1,.38.38,0,0,1,.44.3.39.39,0,0,1-.31.44A16.09,16.09,0,0,1,623.11,440.06Z" style="fill:#263238"></path><path d="M362.78,356.23a.33.33,0,0,1-.13,0,.24.24,0,0,1-.08-.34c7.11-11.91,19.49-21.33,34.85-26.54a.25.25,0,1,1,.16.48C382.33,335,370.05,344.3,363,356.1A.23.23,0,0,1,362.78,356.23Z"></path></g><path d="M535.54,405.66a15.75,15.75,0,0,0-15.75,15.78h0a15.78,15.78,0,1,0,15.77-15.78Z" style="fill:#263238"></path><path d="M438.5,274.76c0-1.42,3.3-4.37,5-6,1.26-1.2,5.94-.64,8.29-.27l28.25-18s8.76-16.36,8.71-17l9.21.14-10.3,26.09-29,14,.24.45s-3.76,2.72-5,3.67-4.43,5.88-5.29,3.71.75-2.28,1.69-3.8-1.71-2.64-2.66-2.83-1.32,1.42-1.83,2.75,1.66,1.13,1.66,1.13.66.66-.19,1.8-3.69-.65-5.21-.83-.86-1.8-.86-1.8l-1.89-.47A5.76,5.76,0,0,1,438.5,274.76Z" style="fill:#ce7a63"></path><path d="M438.5,274.76c0-1.42,3.3-4.37,5-6,1.26-1.2,5.94-.64,8.29-.27l28.25-18s8.76-16.36,8.71-17l9.21.14-10.3,26.09-29,14,.24.45s-3.76,2.72-5,3.67-4.43,5.88-5.29,3.71.75-2.28,1.69-3.8-1.71-2.64-2.66-2.83-1.32,1.42-1.83,2.75,1.66,1.13,1.66,1.13.66.66-.19,1.8-3.69-.65-5.21-.83-.86-1.8-.86-1.8l-1.89-.47A5.76,5.76,0,0,1,438.5,274.76Z" style="opacity:0.30000000000000004"></path><polygon points="488.41 239.03 484.57 237.76 493.01 211.52 505.52 211.52 492.31 239.41 488.41 239.03" style="fill:#263238"></polygon><g style="opacity:0.4"><polygon points="488.41 239.03 484.57 237.76 493.01 211.52 505.52 211.52 492.31 239.41 488.41 239.03" style="fill:#fff"></polygon></g><path d="M495.44,216.63c.79-2.78,6.84-13.78,6.84-13.78s4.27-4,30.21,6.39c24.81,10,54.71,36.64,54.71,36.64-.32.66-42,16.67-42,16.67l-45.17-24.69Z" style="fill:#263238"></path><g style="opacity:0.7000000000000001"><path d="M495.44,216.63c.79-2.78,6.84-13.78,6.84-13.78s4.27-4,30.21,6.39c24.81,10,54.71,36.64,54.71,36.64-.32.66-42,16.67-42,16.67l-45.17-24.69Z" style="fill:#fff"></path></g><path d="M509.75,245.88s17.44,2.26,33.31-2a43.78,43.78,0,0,0,23.69-16l-9.81-7.54s-11.31,23.07-45,19.13Z" style="fill:#263238"></path><path d="M513.39,245.31s2.94-14.83,3.59-19.48c0,0,3,6.79,1.59,22.15Z" style="opacity:0.30000000000000004"></path><path d="M569.63,228.67c.18-.57-32.43,29.91-32.43,29.91l6.49,3.36,33.83-25.59Z" style="fill:#263238"></path><path d="M565.21,190.15s9-.3,12.31-2.74v5s-5.65,1.48-8.89,1A3.71,3.71,0,0,1,565.21,190.15Z" style="fill:#263238"></path><path d="M589.94,204c-3-3.37-7.25-5.2-11.33-7.07a190.15,190.15,0,0,1-23.92-13.12c-4.94-3.19-9.81-6.65-15.33-8.7s-12-2.52-17.15.23c-5.54,2.93-8.71,8.84-11.56,14.41-1.64,3.21-3.27,7.16-1.39,10.24l24.86,10.27a276.48,276.48,0,0,1,47.27,30.9c4.41-5.37,8.91-10.89,11.19-17.45S594.53,209.24,589.94,204Z" style="fill:#263238"></path><path d="M494.18,223s-2-4-1.86-6.28c.22-4.64,1.51-14.07,10.62-17.19,9.55-3.27,37.3,9.53,37.3,9.53l-1,3.24s-24.87-11.16-32.91-5.74S494.18,223,494.18,223Z" style="fill:#263238"></path><g style="opacity:0.30000000000000004"><path d="M537.78,180.89c-.8-2.43-2.44-5.26-4.59-6.54l-22.07,22.52a25.44,25.44,0,0,0,10.76,3.56,16.75,16.75,0,0,0,10.85-2.81,13.42,13.42,0,0,0,5.7-9.75A17.47,17.47,0,0,0,537.78,180.89Z"></path></g><circle cx="519.39" cy="183.28" r="16.95" transform="matrix(0.16, -0.99, 0.99, 0.16, 254.87, 666.38)" style="fill:#263238"></circle><circle cx="519.39" cy="183.28" r="16.95" transform="matrix(0.16, -0.99, 0.99, 0.16, 254.87, 666.38)" style="fill:#fff;opacity:0.7000000000000001"></circle><path d="M518.33,196.51a11.87,11.87,0,0,1-5.87-1.5,12.45,12.45,0,0,1-5.89-11.65,16,16,0,0,1,6.71-11.46c2.76-2,7.22-3.59,10.72-1.44a.25.25,0,0,1,.09.34.26.26,0,0,1-.35.08c-3.29-2-7.53-.49-10.17,1.42a15.49,15.49,0,0,0-6.5,11.1,11.32,11.32,0,0,0,14.17,12.27,15.3,15.3,0,0,0,7.47-4.5c2.38-2.55,4.44-6.68,3.1-10.63A8.41,8.41,0,0,0,525,175.1a9.6,9.6,0,0,0-8.24,3.16,11.23,11.23,0,0,0-2.68,8.55,3.88,3.88,0,0,0,1.21,2.81c1.46,1.14,3.63.09,4.26-.26a11.84,11.84,0,0,0,4.43-4.29,3.84,3.84,0,0,0,.7-2.38c-.1-.74-.78-1.52-1.52-1.43a.24.24,0,0,1-.28-.22.25.25,0,0,1,.22-.27,2.06,2.06,0,0,1,2.07,1.85,4.39,4.39,0,0,1-.76,2.71,12.26,12.26,0,0,1-4.61,4.46c-1.87,1-3.67,1.12-4.82.22a4.33,4.33,0,0,1-1.4-3.15,11.78,11.78,0,0,1,2.8-8.93,10.1,10.1,0,0,1,8.69-3.32,8.89,8.89,0,0,1,7.18,5.77c1.41,4.15-.73,8.47-3.2,11.13a15.81,15.81,0,0,1-7.73,4.64A13,13,0,0,1,518.33,196.51Z" style="opacity:0.30000000000000004"></path><path d="M560.13,184.58a9.7,9.7,0,0,0-4-3.37l-10.39-6a8.77,8.77,0,0,0-3.94-1.49,3,3,0,0,0-3.18,2.25l20.42,13.2C560.68,188.42,561,186.12,560.13,184.58Z" style="fill:#263238"></path><path d="M560.47,187.41c-.19.5-3.87,3.52-3.11,5s19.85,13,21.81,11.29,3-5.12,3-5.12-11.07-5.38-12.44-6S560.47,187.41,560.47,187.41Z" style="fill:#407BFF"></path><path d="M584.61,199.88,566,229c5.35,3.75,10.42,7.94,15.49,12,4.41-5.37,8.79-10.75,11.07-17.31s1.95-14.49-2.64-19.71A20.53,20.53,0,0,0,584.61,199.88Z" style="opacity:0.30000000000000004"></path><g style="opacity:0.30000000000000004"><path d="M525,182.66a8.94,8.94,0,0,1-2.88,5.17c-1.53,1.29-3.25,2.49-5.25,2.52a2.8,2.8,0,0,1-2.11-.95,3.93,3.93,0,0,0,3.57,1.52,9.08,9.08,0,0,0,5.47-2.46A5.92,5.92,0,0,0,525,182.66Z"></path></g><path d="M578,204.07h0a.25.25,0,0,1-.23-.27l.61-6.46-8.25,3.33a.26.26,0,0,1-.23,0,.24.24,0,0,1-.11-.2l-.28-7.54-8.25,2.59a.26.26,0,0,1-.33-.24l0-7.47a.24.24,0,0,1,.24-.25h0a.26.26,0,0,1,.25.25l0,7.13,8.24-2.58a.25.25,0,0,1,.22,0,.26.26,0,0,1,.1.2l.28,7.5,8.3-3.35a.26.26,0,0,1,.24,0,.26.26,0,0,1,.1.23l-.64,6.86A.25.25,0,0,1,578,204.07Z" style="fill:#263238"></path><path d="M572.31,218.1a.2.2,0,0,1-.11,0,268.57,268.57,0,0,1-36.64-21.18.25.25,0,1,1,.28-.41,268.59,268.59,0,0,0,36.57,21.14.24.24,0,0,1,.12.33A.25.25,0,0,1,572.31,218.1Z"></path><polygon points="548.24 374.25 544.37 377.53 537.04 374.53 528.1 360.4 540.88 354.19 548.24 374.25" style="fill:#ce7a63"></polygon><path d="M535.31,372.76l3.68-.16a2.58,2.58,0,0,1,2.13,1c2.25,2.8,3.79,1.63,6-1.19,1.45-.23,1.92,1.43,2.06,1.88l3.19,9.86a1.58,1.58,0,0,1-1,2,1.44,1.44,0,0,1-.46.08l-12.12.54-17,.75c-4.63.2-5.79-4.42-3.91-4.93,8.49-2.28,14.45-5.07,17-7.68C535.36,374.44,534.84,374.14,535.31,372.76Z" style="fill:#407BFF"></path><path d="M536.1,377.83a.26.26,0,0,1-.21-.11,4.19,4.19,0,0,0-3-1.76.25.25,0,0,1-.23-.27.24.24,0,0,1,.27-.23,4.66,4.66,0,0,1,3.39,2,.25.25,0,0,1-.06.35A.23.23,0,0,1,536.1,377.83Z" style="fill:#263238"></path><path d="M533.89,379.65a.23.23,0,0,1-.2-.11,4.2,4.2,0,0,0-3-1.76.25.25,0,0,1-.23-.27.25.25,0,0,1,.28-.23,4.69,4.69,0,0,1,3.39,2,.26.26,0,0,1-.07.35A.23.23,0,0,1,533.89,379.65Z" style="fill:#263238"></path><path d="M531.12,381.22a.26.26,0,0,1-.21-.11,4.19,4.19,0,0,0-3-1.76.25.25,0,0,1-.23-.27.24.24,0,0,1,.27-.23,4.66,4.66,0,0,1,3.39,2,.24.24,0,0,1-.06.34A.2.2,0,0,1,531.12,381.22Z" style="fill:#263238"></path><path d="M549.06,260.89c-2.37.55-45.92,21.93-55.95,34.22-7.08,8.66-1.89,14.69,3.38,23.65s38,53.63,38,53.63l12.6-5.23-25-59.33,64-23.82a21.53,21.53,0,0,0,8-15.34c.83-10.32-7-22.79-7-22.79Z" style="fill:#263238"></path><path d="M454.28,282.1c-1.75-.74-3.51-1.48-5.29-2.14s-3.61-1.23-5.42-1.8a3.36,3.36,0,0,1-1.83-1.78A3.34,3.34,0,0,1,443.5,272a3.75,3.75,0,0,1,2.56,0c1.81.57,3.63,1.14,5.41,1.79s3.55,1.4,5.3,2.14a3.46,3.46,0,0,1,1.82,1.79,3.34,3.34,0,0,1,0,2.56,3.39,3.39,0,0,1-4.34,1.85Z" style="fill:#263238"></path><path d="M450.05,296.59a2.77,2.77,0,0,0,1.62-1.95L455,279.7a2.78,2.78,0,1,0-5.43-1.23l-3.37,14.94a2.79,2.79,0,0,0,2.1,3.33A2.75,2.75,0,0,0,450.05,296.59Z" style="fill:#263238"></path><path d="M513.09,234.3c-.24,1.86-12.09,29.1-15.06,32.43s-37.2,12.42-37.2,12.42l-4.78-5L487,255.63,496.11,228Z" style="fill:#ce7a63"></path><path d="M445.3,276.81c0-1.43,3.3-4.37,5-6s9.66,0,9.66,0l.67.28,2.31-1,2.79,6.18s-3.76,2.72-5,3.67-4.43,5.88-5.29,3.7.75-2.27,1.7-3.79-1.72-2.64-2.66-2.83-1.33,1.42-1.84,2.75,1.66,1.13,1.66,1.13.66.66-.19,1.8-3.69-.65-5.21-.84-.85-1.79-.85-1.79l-1.9-.47A5.76,5.76,0,0,1,445.3,276.81Z" style="fill:#ce7a63"></path><circle cx="455.47" cy="279.06" r="3.49" transform="translate(-61.53 144.76) rotate(-16.93)" style="fill:#263238"></circle><path d="M496.37,213.32c-2.67,10.1-6.6,19.12-8.62,26.69l24.3,10.45c8.65-33.33,5.2-46.65-2.42-48.78C509.63,201.68,500.67,197.59,496.37,213.32Z" style="fill:#263238"></path><path d="M496.37,213.32c-2.67,10.1-6.6,19.12-8.62,26.69l24.3,10.45c8.65-33.33,5.2-46.65-2.42-48.78C509.63,201.68,500.67,197.59,496.37,213.32Z" style="fill:#fff;opacity:0.7000000000000001"></path></g><g id="freepik--character-1--inject-22"><path d="M250.24,260.89c-2.37.55-45.92,21.93-56,34.22-7.09,8.66-1.89,14.69,3.38,23.65S236.74,372,236.74,372l8.66-9.46-22.1-54.66,58.8-22.43c6.45-3.83,9.68-11.63,10.63-19,0-.35.08-.72.11-1.08.83-10.33-9.5-19.95-9.5-19.95Z" style="fill:#ebb376"></path><path d="M225.25,273.54l20,26.14s35.35-9.54,40.86-15.21,9-16.47,5.85-28.35c-2.81-10.54-10.07-11.69-10.07-11.69-15.1,8-27.53,13.38-39,19.18C236.47,266.87,228.21,271.89,225.25,273.54Z" style="fill:#263238"></path><polygon points="249.83 373.9 245.55 377.53 238.22 374.53 229.28 360.4 242.05 354.19 249.83 373.9" style="fill:#ebb376"></polygon><path d="M236.49,372.76l3.67-.16a2.59,2.59,0,0,1,2.14,1c2.25,2.8,3.79,1.63,6-1.19,1.46-.23,1.93,1.43,2.07,1.88l3.19,9.86a1.58,1.58,0,0,1-1,2,1.33,1.33,0,0,1-.45.08l-12.12.54-17,.75c-4.63.2-5.79-4.42-3.91-4.93,8.49-2.28,14.45-5.07,17-7.68C236.54,374.44,236,374.14,236.49,372.76Z" style="fill:#407BFF"></path><path d="M237.28,377.83a.26.26,0,0,1-.21-.11,4.19,4.19,0,0,0-3-1.76.25.25,0,0,1,0-.5,4.66,4.66,0,0,1,3.39,2,.25.25,0,0,1-.06.35A.23.23,0,0,1,237.28,377.83Z" style="fill:#263238"></path><path d="M235.07,379.65a.26.26,0,0,1-.21-.11,4.18,4.18,0,0,0-3-1.76.25.25,0,1,1,0-.5,4.68,4.68,0,0,1,3.39,2,.26.26,0,0,1-.07.35A.23.23,0,0,1,235.07,379.65Z" style="fill:#263238"></path><path d="M232.29,381.22a.26.26,0,0,1-.2-.11,4.2,4.2,0,0,0-3-1.76.25.25,0,0,1-.22-.27.25.25,0,0,1,.27-.23,4.66,4.66,0,0,1,3.39,2,.24.24,0,0,1-.06.34A.23.23,0,0,1,232.29,381.22Z" style="fill:#263238"></path><path d="M248.56,298.75c0-.56.83-21.86.83-21.86s-4.21-9.19-4.5-8.63S247,279.15,247,279.15l-1.74,20.53Z" style="opacity:0.30000000000000004"></path><path d="M201.24,182s4,5.44,4.82,10.73-1.31,11.43-1.31,11.43l-3.45-7Z" style="fill:#263238"></path><path d="M197.92,232.83a25.93,25.93,0,0,0,1.8-7.32c.68-6.19,1.92-8.59-2.44-16.44L192.33,207c-2-.13-4.2,1.57-5,3.36-1.73,3.81-.94,5.22-2,6.9s-2.87,2.62-4.42,3.8-3,3-2.57,4.93c.33,1.49,1.72,2.63,1.84,4.15.09,1.27-.73,2.4-1.23,3.57A7.68,7.68,0,0,0,188.64,244c2.54-.92,4.39-3.09,6-5.23A29.66,29.66,0,0,0,197.92,232.83Z" style="fill:#263238"></path><path d="M209.86,213.11s-4.21-4.54-7.34-15.33c0,0-.63.08-.63.07-.45-1.5-.81-2.92-1.09-4.18l0,0-7.57,15.6c2.14,2.73,4.67,9,5.55,11.79,0,0,1.16,5.31,7,1.86C210,220.37,209.86,213.11,209.86,213.11Z" style="fill:#ebb376"></path><path d="M195.6,213.46l6.14-6.16c.76,2.64.47,6.54-4.39,9.92A26.61,26.61,0,0,0,195.6,213.46Z" style="opacity:0.2"></path><path d="M170.94,193.17c.37,3.81,3.87,10.48,7.62,6.25S170.32,186.62,170.94,193.17Z" style="fill:#263238"></path><path d="M197,187.52c4.17,8.43,6.69,13.1,5,19.61-2.63,9.78-14.55,11.78-21.17,4.75-6-6.34-11.78-19.06-5.61-26.81A13,13,0,0,1,197,187.52Z" style="fill:#ebb376"></path><path d="M192.87,177.17c-3.69-3.85-15.38,2.52-17.21,6.61-.27.61,8.31.14,7.82.22l3.76-.71c.42-.38,1.7-.36,3,.86,0,0,3.75,9.3,9.36,10.89,2.6-3.66,2.74-5.66,1.95-9.12C200.42,180.76,196.13,178.6,192.87,177.17Z" style="fill:#263238"></path><path d="M188.05,196.09c.48.83.42,1.76-.13,2.06s-1.38-.12-1.86-1-.42-1.76.13-2.07S187.57,195.25,188.05,196.09Z" style="fill:#263238"></path><path d="M179.46,201c.48.83.42,1.76-.12,2.06s-1.39-.11-1.86-1-.42-1.76.12-2.06S179,200.19,179.46,201Z" style="fill:#263238"></path><path d="M181.05,199.42s-.27,5.65-.15,7.82c1.77.39,3.49-1.24,3.49-1.24Z" style="fill:#d58745"></path><path d="M186.52,191.46a.49.49,0,0,1-.43.17,3.64,3.64,0,0,0-3.12,1,.44.44,0,0,1-.63,0,.44.44,0,0,1,0-.63,4.47,4.47,0,0,1,3.92-1.25.46.46,0,0,1,.39.51A.5.5,0,0,1,186.52,191.46Z" style="fill:#263238"></path><path d="M173,200a.57.57,0,0,1-.26,0,.47.47,0,0,1-.32-.56,4.42,4.42,0,0,1,2.73-3,.45.45,0,0,1,.28.86,3.43,3.43,0,0,0-2.14,2.43A.45.45,0,0,1,173,200Z" style="fill:#263238"></path><path d="M165.16,202.24a12.64,12.64,0,0,0,6.11-.13c1.08-.38,5.08-4,5.08-4s11.21-10.81,13.18-10.64,6.22,7,6.22,7l.37-.12,6.94-1.27s-.28-3.63-.61-6.24-1.21-8.64-1.21-8.64l-16.63,6.49Z" style="fill:#263238"></path><path d="M165.16,202.24a.91.91,0,0,0-.24-1c-2.72-2.67-.85-17.45,10.2-24.65,13.2-8.61,23.1-1.45,25.09.05l1,1.47s-13.21,5.57-14.65,6.57c-4.29,3-13.91,13-17.54,15.75C166,202.78,165.16,202.24,165.16,202.24Z" style="fill:#263238"></path><path d="M165.16,202.24a.91.91,0,0,0-.24-1c-2.72-2.67-.85-17.45,10.2-24.65,13.2-8.61,23.1-1.45,25.09.05l1,1.47s-13.21,5.57-14.65,6.57c-4.29,3-13.91,13-17.54,15.75C166,202.78,165.16,202.24,165.16,202.24Z" style="fill:#fff;opacity:0.7000000000000001"></path><path d="M204.15,192.46a8.87,8.87,0,0,1-1.25,6.69c-1.74,2.6-4.67,1.54-5.91-1.16-1.12-2.42-1.56-6.7,1-8.36S203.52,189.64,204.15,192.46Z" style="fill:#ebb376"></path><path d="M198.68,196.1a.25.25,0,0,1-.23-.15,4.92,4.92,0,0,1-.37-2.51,3.17,3.17,0,0,1,.88-2,2,2,0,0,1,2.15-.42.25.25,0,0,1,.11.34.25.25,0,0,1-.33.11,1.49,1.49,0,0,0-1.59.33,2.69,2.69,0,0,0-.72,1.67,4.35,4.35,0,0,0,.33,2.25.25.25,0,0,1-.13.33Z" style="opacity:0.2"></path><path d="M195.07,176.35c-3-.29-6.17,1-9.07,2.47-6.54,3.25-13,7.54-16.81,13.59-.31.47-2.84,4.2-2.44,4.68s2.81-2.79,3.13-3.16a63.46,63.46,0,0,1,5.29-5.34,65.66,65.66,0,0,1,12.33-8.73c1.23-.66,2.47-1.29,3.73-1.88C192.08,177.59,194.19,176.27,195.07,176.35Z" style="fill:#263238"></path><path d="M172.12,185c.84-.91,1.52-1.48,2.28-2.46a.38.38,0,0,0,.11-.31c0-.11-.18-.15-.29-.17a3,3,0,0,0-2,.6,7,7,0,0,0-2.86,3.73,4.2,4.2,0,0,0-.24,1.7c.29.85,1-.17,1.29-.58C171,186.67,171.51,185.61,172.12,185Z" style="fill:#263238"></path><path d="M184.54,175.39a4.33,4.33,0,0,0-1.51.23,18,18,0,0,0-6,3.12c-.27.23-.48.92-.2,1.15a.65.65,0,0,0,.62,0,54.8,54.8,0,0,0,7.18-3.41c.28-.15.6-.42.5-.72S184.78,175.41,184.54,175.39Z" style="fill:#263238"></path><path d="M194.09,192s6.12,14.82,5.65,16.12c-2,5.4-5.28,7.29-5.28,7.29s.57.32,2.4-1.13,3.89-3.18,4.39-5.06-2.73-9.88-3.18-12.09a62.47,62.47,0,0,0-1.88-6.21Z" style="fill:#263238"></path><polygon points="200.46 205.9 203.43 200.66 202.9 199.15 200.04 203.82 200.46 205.9" style="fill:#263238"></polygon><path d="M186.46,195l-2.15.61S186.14,196.48,186.46,195Z" style="fill:#263238"></path><path d="M177.91,200l-2.14.61S177.59,201.45,177.91,200Z" style="fill:#263238"></path><path d="M187.75,207.09a.27.27,0,0,1-.24-.17.26.26,0,0,1,.17-.32,2.89,2.89,0,0,0,2.13-3.2.26.26,0,0,1,.21-.29.25.25,0,0,1,.29.21,3.45,3.45,0,0,1-2.48,3.76Z" style="fill:#263238"></path><path d="M204.2,198.54a1.89,1.89,0,1,1-1.89-1.9A1.89,1.89,0,0,1,204.2,198.54Z" style="fill:#407BFF"></path><path d="M138.7,272.29c.29-1.4,4.12-3.6,6.12-4.84,1.48-.91,6,.6,8.17,1.44L184.34,257s5.66-13.1,5.74-13.75l15.24.9L189.9,267.58l-31.22,7.82.14.49s-4.24,1.89-5.63,2.57-5.55,4.85-5.94,2.55,1.2-2.07,2.43-3.37-1.13-2.94-2-3.32-1.59,1.13-2.36,2.32,1.39,1.45,1.39,1.45.51.78-.55,1.72-3.48-1.39-4.93-1.88-.47-1.94-.47-1.94l-1.76-.84A5.78,5.78,0,0,1,138.7,272.29Z" style="fill:#ebb376"></path><path d="M138.7,272.29c.29-1.4,4.12-3.6,6.12-4.84,1.48-.91,6,.6,8.17,1.44L184.34,257l5.74-13.75,15.24.9L189.9,267.58l-31.22,7.82.14.49s-4.24,1.89-5.63,2.57-5.55,4.85-5.94,2.55,1.2-2.07,2.43-3.37-1.13-2.94-2-3.32-1.59,1.13-2.36,2.32,1.39,1.45,1.39,1.45.51.78-.55,1.72-3.48-1.39-4.93-1.88-.47-1.94-.47-1.94l-1.76-.84A5.78,5.78,0,0,1,138.7,272.29Z" style="opacity:0.30000000000000004"></path><path d="M151.23,296.59a2.77,2.77,0,0,0,1.62-1.95l3.37-14.94a2.78,2.78,0,0,0-5.43-1.23l-3.37,14.94a2.78,2.78,0,0,0,2.1,3.33A2.75,2.75,0,0,0,151.23,296.59Z" style="fill:#263238"></path><g id="freepik--freepik-character-inject-280--inject-22"><path d="M327.37,338.67a59.26,59.26,0,1,1-59.26,59.26,59.32,59.32,0,0,1,59.26-59.26m0-8.5h0a67.77,67.77,0,0,0-67.77,67.76h0a67.77,67.77,0,1,0,67.76-67.77Z" style="fill:#263238"></path><path d="M327.37,341.2a56.78,56.78,0,0,1,56.71,56.73h0a56.73,56.73,0,1,1-56.71-56.74m-64.86,56.73a64.86,64.86,0,1,0,64.86-64.86A64.86,64.86,0,0,0,262.51,397.93Z" style="fill:#263238"></path><path d="M123.8,338.67a59.33,59.33,0,0,1,59.26,59.26h0a59.26,59.26,0,1,1-59.25-59.27m0-8.5a67.76,67.76,0,1,0,67.76,67.76,67.76,67.76,0,0,0-67.76-67.76Z" style="fill:#263238"></path><path d="M123.81,341.2a56.79,56.79,0,0,1,56.72,56.73h0a56.73,56.73,0,1,1-56.72-56.74M59,397.93a64.86,64.86,0,1,0,64.86-64.86A64.86,64.86,0,0,0,59,397.93Z" style="fill:#263238"></path><circle cx="327.37" cy="397.93" r="10.45" transform="translate(-117.31 658.27) rotate(-80.9)" style="fill:#263238"></circle><circle cx="123.81" cy="397.93" r="10.45" transform="translate(-213.06 152.58) rotate(-36.65)" style="fill:#263238"></circle><path d="M327.39,390.62a7.27,7.27,0,0,1,1.94,14.27h-.11L239.78,433.6a12.4,12.4,0,0,1-3,.37,12.59,12.59,0,0,1-3.19-24.77l91.62-18.27h.24a7.26,7.26,0,0,1,2-.27h0m0-3.24a10.28,10.28,0,0,0-2.82.4l-91.71,18.33a15.78,15.78,0,0,0,3.88,31.07,16.19,16.19,0,0,0,3.92-.49L330.17,408a10.47,10.47,0,0,0-2.78-20.59Z" style="fill:#263238"></path><path d="M234.24,423.46,143.75,312.67a3.19,3.19,0,0,1,4.93-4l87.19,106.68,54.71-129.59a3.19,3.19,0,0,1,5.88,2.48L239.69,422.71a3.21,3.21,0,0,1-2.49,1.92h-.46A3.21,3.21,0,0,1,234.24,423.46Z" style="fill:#407BFF"></path><path d="M325.44,398.83l-42.66-90.08-.09-.2a2.13,2.13,0,0,1,3.93-1.62L329.29,397a2.13,2.13,0,1,1-3.85,1.82Z" style="fill:#407BFF"></path><path d="M123,401a3.18,3.18,0,0,1-2.3-3.88L147,294.85a3.2,3.2,0,0,1,3.38-2.39L285,304.64a3.2,3.2,0,1,1-.57,6.38L152.51,299.09l-25.6,99.63a3.2,3.2,0,0,1-3.1,2.4A3,3,0,0,1,123,401Z" style="fill:#407BFF"></path><path d="M244.1,455.87,225.3,388.1a2.13,2.13,0,0,1,4.1-1.13l18.79,67.8a1.87,1.87,0,0,1,.08.57,2.12,2.12,0,0,1-4.17.53Z" style="fill:#263238"></path><path d="M219.94,387.54a2.14,2.14,0,0,1,2.13-2.13h18.79a2.13,2.13,0,0,1,0,4.26H222.07A2.13,2.13,0,0,1,219.94,387.54Z" style="fill:#263238"></path><path d="M237.42,457a2.12,2.12,0,0,1,2.12-2.13h18.79a2.13,2.13,0,1,1,0,4.25H239.54A2.12,2.12,0,0,1,237.42,457Z" style="fill:#263238"></path><path d="M301.55,274.76c-5,1.95-40.68-.23-43.12,5.32s13.83.83,21,3.19,30.67,10.27,36.23,3.19C325.14,274.28,312.06,270.62,301.55,274.76Z" style="fill:#263238"></path><path d="M74.23,404.79a.38.38,0,0,1-.37-.32,48,48,0,0,1,23.1-49,.39.39,0,0,1,.52.14.38.38,0,0,1-.14.51A47.24,47.24,0,0,0,74.6,404.35a.36.36,0,0,1-.31.43Z" style="fill:#263238"></path><path d="M158.57,423.05a.4.4,0,0,1-.27-.11.38.38,0,0,1,0-.53,24.49,24.49,0,0,0,5.55-9.22,27,27,0,0,0,1.84-10.72.36.36,0,0,1,.34-.4.37.37,0,0,1,.41.33,27.85,27.85,0,0,1-1.88,11.05,25.22,25.22,0,0,1-5.73,9.48A.35.35,0,0,1,158.57,423.05Z" style="fill:#263238"></path><path d="M368.29,367.69a.38.38,0,0,1-.31-.16,47.23,47.23,0,0,0-49.74-19.11.37.37,0,1,1-.17-.73A48,48,0,0,1,368.6,367.1a.38.38,0,0,1-.1.52A.33.33,0,0,1,368.29,367.69Z" style="fill:#263238"></path><path d="M324.29,440.06a32.18,32.18,0,0,1-8.44-1.26,25.29,25.29,0,0,1-9.89-5,.38.38,0,0,1,.49-.57,24.49,24.49,0,0,0,9.6,4.85,27,27,0,0,0,10.82,1,.38.38,0,0,1,.44.3.39.39,0,0,1-.31.44A16.09,16.09,0,0,1,324.29,440.06Z" style="fill:#263238"></path><path d="M64,356.23a.33.33,0,0,1-.13,0,.24.24,0,0,1-.08-.34c7.11-11.91,19.49-21.33,34.85-26.54a.25.25,0,0,1,.16.48C83.51,335,71.23,344.3,64.17,356.1A.24.24,0,0,1,64,356.23Z"></path><path d="M301.55,274.76c-5,1.95-40.68-.23-43.12,5.32s13.83.83,21,3.19,30.67,10.27,36.23,3.19C325.14,274.28,312.06,270.62,301.55,274.76Z" style="opacity:0.30000000000000004"></path></g><path d="M236.72,405.66A15.77,15.77,0,0,0,221,421.44h0a15.78,15.78,0,1,0,15.78-15.78Z" style="fill:#263238"></path><polygon points="259.61 442.9 256.95 445.85 248.67 442.46 247.95 426.59 263.98 413.07 259.61 442.9" style="fill:#ebb376"></polygon><path d="M247.89,441.09l3.67-.16a2.59,2.59,0,0,1,2.14,1c2.24,2.8,3.79,1.64,6-1.18,1.45-.24,1.92,1.42,2.06,1.87l3.19,9.86a1.57,1.57,0,0,1-1,2,1.44,1.44,0,0,1-.46.08l-12.11.54-17,.75c-4.63.21-5.79-4.41-3.9-4.93,8.48-2.27,14.44-5.06,17-7.67C247.93,442.77,247.41,442.46,247.89,441.09Z" style="fill:#407BFF"></path><path d="M248.67,446.16a.26.26,0,0,1-.21-.11,4.16,4.16,0,0,0-3-1.77.25.25,0,1,1,.05-.49,4.7,4.7,0,0,1,3.39,2,.26.26,0,0,1-.07.35A.24.24,0,0,1,248.67,446.16Z" style="fill:#263238"></path><path d="M246.46,448a.23.23,0,0,1-.2-.1,4.18,4.18,0,0,0-3-1.77.24.24,0,0,1-.22-.27.25.25,0,0,1,.27-.23,4.73,4.73,0,0,1,3.39,2,.25.25,0,0,1-.06.35A.28.28,0,0,1,246.46,448Z" style="fill:#263238"></path><path d="M243.69,449.54a.25.25,0,0,1-.21-.1,4.17,4.17,0,0,0-3-1.77.25.25,0,0,1-.23-.27.25.25,0,0,1,.27-.23,4.73,4.73,0,0,1,3.39,2,.25.25,0,0,1-.06.35A.23.23,0,0,1,243.69,449.54Z" style="fill:#263238"></path><path d="M250.63,280.39c-1.07,1.28-3.56,81.5-3.56,81.5s.41,78.74,1.79,77.8l12.52-8.31,6.73-47.46,1.83-28.07,16.71-73.73s8.6-22.17-.22-34l-26.82,25Z" style="fill:#ebb376"></path><path d="M249.71,268.24l-1.93,51.23,29.62,1.08,15.38-53.16c.16-11.45-3.26-16.81-7-20.5l-17.81,15.62Z" style="fill:#263238"></path><path d="M155.46,282.1c-1.75-.74-3.51-1.48-5.3-2.14s-3.6-1.23-5.41-1.8a3.36,3.36,0,0,1-1.83-1.78,3.34,3.34,0,0,1,1.76-4.39,3.72,3.72,0,0,1,2.55,0c1.82.57,3.64,1.14,5.42,1.79s3.54,1.4,5.3,2.14a3.5,3.5,0,0,1,1.82,1.79,3.34,3.34,0,0,1,0,2.56,3.39,3.39,0,0,1-4.34,1.85Z" style="fill:#263238"></path><polygon points="192.76 244.73 188.92 243.46 197.35 217.22 209.87 217.22 196.66 245.11 192.76 244.73" style="fill:#407BFF"></polygon><polygon points="192.76 244.73 188.92 243.46 197.35 217.22 209.87 217.22 196.66 245.11 192.76 244.73" style="opacity:0.30000000000000004"></polygon><path d="M199.79,222.33c.78-2.78,6.83-13.77,6.83-13.77s4.27-4.05,30.21,6.38c24.81,10,50.5,33,50.5,33,2.79,6.6-31.8,27.77-40.55,21.89-3.79-7.11-8.45-13.17-14.72-17.28-12.09,1.16-17.19-1.26-27.66-9Z" style="fill:#407BFF"></path><path d="M215.46,243.85A47.79,47.79,0,0,0,245.12,246a76.85,76.85,0,0,0,26-12.35l-9.8-7.54s-10.88,16.16-44.59,12.21Z" style="fill:#263238"></path><path d="M214,249.81s3.07-13.63,3.72-18.28c0,0,3.25,5.13,1.89,20.49A16.63,16.63,0,0,1,214,249.81Z" style="opacity:0.30000000000000004"></path><path d="M274,234.37c.18-.57-31.93,27.86-31.93,27.86l3.7,6,36.11-26.16Z" style="fill:#263238"></path><path d="M269.55,195.85s9-.3,12.31-2.74v5s-5.65,1.48-8.89,1A3.72,3.72,0,0,1,269.55,195.85Z" style="fill:#263238"></path><path d="M294.28,209.73c-3-3.37-7.25-5.2-11.32-7.08A188.76,188.76,0,0,1,259,189.53c-5-3.19-9.82-6.65-15.34-8.7s-11.94-2.52-17.15.23C221,184,217.84,189.9,215,195.47c-1.65,3.21-3.28,7.16-1.4,10.24L238.46,216a276.4,276.4,0,0,1,47.28,30.91c4.41-5.38,8.9-10.9,11.18-17.46S298.87,214.94,294.28,209.73Z" style="fill:#263238"></path><path d="M198.52,228.7s-2-4-1.86-6.28c.22-4.64,1.52-14.07,10.63-17.19,9.55-3.27,37.29,9.53,37.29,9.53l-1,3.24s-25.7-12.95-33.74-7.53S198.52,228.7,198.52,228.7Z" style="fill:#263238"></path><g style="opacity:0.30000000000000004"><path d="M242.12,186.59c-.79-2.43-2.44-5.26-4.59-6.54l-22.07,22.52a25.48,25.48,0,0,0,10.77,3.56,16.73,16.73,0,0,0,10.84-2.81,13.42,13.42,0,0,0,5.7-9.75A17.3,17.3,0,0,0,242.12,186.59Z"></path></g><circle cx="223.74" cy="188.98" r="16.95" transform="translate(-68.1 213.55) rotate(-45)" style="fill:#407BFF"></circle><path d="M222.67,202.21a11.89,11.89,0,0,1-5.87-1.5,12.47,12.47,0,0,1-5.89-11.65,16,16,0,0,1,6.71-11.46c2.76-2,7.22-3.59,10.73-1.44a.25.25,0,0,1-.26.42c-3.3-2-7.54-.49-10.18,1.42a15.56,15.56,0,0,0-6.5,11.1,12,12,0,0,0,5.64,11.18,11.83,11.83,0,0,0,8.53,1.09,15.3,15.3,0,0,0,7.47-4.5c2.38-2.55,4.44-6.68,3.1-10.63a8.41,8.41,0,0,0-6.78-5.44,9.57,9.57,0,0,0-8.24,3.16,11.31,11.31,0,0,0-2.68,8.55,3.92,3.92,0,0,0,1.21,2.81c1.46,1.13,3.63.09,4.27-.26a11.82,11.82,0,0,0,4.42-4.29,3.71,3.71,0,0,0,.7-2.38c-.1-.74-.77-1.52-1.52-1.43a.23.23,0,0,1-.27-.22.24.24,0,0,1,.22-.27,2,2,0,0,1,2.06,1.86,4.3,4.3,0,0,1-.76,2.7,12.36,12.36,0,0,1-4.61,4.47c-1.87,1-3.67,1.11-4.81.21a4.29,4.29,0,0,1-1.4-3.15,11.7,11.7,0,0,1,2.8-8.93,10.05,10.05,0,0,1,8.68-3.32,8.92,8.92,0,0,1,7.19,5.77c1.41,4.16-.74,8.47-3.21,11.13a15.82,15.82,0,0,1-7.72,4.64A13.07,13.07,0,0,1,222.67,202.21Z" style="opacity:0.30000000000000004"></path><path d="M264.47,190.28a9.7,9.7,0,0,0-4-3.37l-10.38-6a8.71,8.71,0,0,0-3.95-1.5,3,3,0,0,0-3.17,2.25l20.42,13.2C265,194.12,265.32,191.82,264.47,190.28Z" style="fill:#263238"></path><path d="M264.81,193.11c-.18.5-3.87,3.52-3.11,5s19.86,13,21.82,11.29,3-5.12,3-5.12-11.06-5.38-12.43-6S264.81,193.11,264.81,193.11Z" style="fill:#407BFF"></path><path d="M289,205.58l-18.6,29.12c5.35,3.74,10.43,7.93,15.5,12,4.4-5.37,8.78-10.75,11.06-17.31s1.95-14.49-2.64-19.7A20.31,20.31,0,0,0,289,205.58Z" style="opacity:0.30000000000000004"></path><g style="opacity:0.30000000000000004"><path d="M229.3,188.36a9,9,0,0,1-2.88,5.18c-1.54,1.28-3.26,2.48-5.26,2.51a2.82,2.82,0,0,1-2.11-1,3.93,3.93,0,0,0,3.57,1.52,9.11,9.11,0,0,0,5.48-2.46A5.92,5.92,0,0,0,229.3,188.36Z"></path></g><path d="M282.32,209.77h0a.24.24,0,0,1-.22-.27l.6-6.46-8.25,3.33a.27.27,0,0,1-.23,0,.27.27,0,0,1-.11-.2l-.28-7.54-8.25,2.59a.25.25,0,0,1-.22,0,.26.26,0,0,1-.1-.2l0-7.47a.25.25,0,0,1,.25-.25h0a.25.25,0,0,1,.25.25l0,7.13L274,198a.24.24,0,0,1,.22,0,.31.31,0,0,1,.11.2l.28,7.5,8.29-3.35a.28.28,0,0,1,.25,0,.29.29,0,0,1,.1.23l-.65,6.87A.25.25,0,0,1,282.32,209.77Z" style="fill:#263238"></path><path d="M276.65,223.8a.23.23,0,0,1-.11,0,268.57,268.57,0,0,1-36.64-21.18.25.25,0,0,1-.06-.35.24.24,0,0,1,.34-.06,268.7,268.7,0,0,0,36.58,21.14.26.26,0,0,1,.12.33A.28.28,0,0,1,276.65,223.8Z"></path><path d="M146.48,276.81c0-1.43,3.3-4.37,5-6s9.66,0,9.66,0l.66.28,2.32-1,2.79,6.18s-3.76,2.72-5,3.67-4.43,5.88-5.29,3.7.75-2.27,1.69-3.79-1.71-2.64-2.65-2.83-1.33,1.42-1.84,2.75,1.66,1.13,1.66,1.13.66.66-.19,1.8-3.69-.65-5.21-.84-.86-1.79-.86-1.79l-1.89-.47A5.76,5.76,0,0,1,146.48,276.81Z" style="fill:#ebb376"></path><circle cx="156.64" cy="279.06" r="3.49" transform="translate(-72.24 55.4) rotate(-16.35)" style="fill:#263238"></circle><path d="M215.46,239.88c-.24,1.86-11.18,23.53-14.14,26.85s-36.6,10.36-36.6,10.36l-2.92-6,29-13.14,9.61-24.29Z" style="fill:#ebb376"></path><path d="M200.72,219c-2.68,10.1-4,18.33-6,25.9l19,6.56c8.66-33.33,7.93-42,.31-44.1C214,207.38,205,203.29,200.72,219Z" style="fill:#407BFF"></path></g><g id="freepik--Plant--inject-22"><path d="M61.66,440.16a11.62,11.62,0,0,0-2.72-2.79,3.26,3.26,0,0,0-3.12-.58,3.33,3.33,0,0,0-1.73,3.54,11.09,11.09,0,0,0,1.65,4.34c3.4,5,6.55,9.55,11.81,13.25C67.55,451.74,64.8,445.43,61.66,440.16Z" style="fill:#407BFF"></path><path d="M79,441c-1.18-.64-3.37.27-4.44,1.08a16.29,16.29,0,0,0-4.71,5.58c-1.65,2.94-1.84,7.08-2,9.7C72,454,76.19,450.53,79,446a6.11,6.11,0,0,0,1-2.58A2.46,2.46,0,0,0,79,441Z" style="fill:#407BFF"></path><path d="M68.17,460.56a.26.26,0,0,1-.25-.19,40.49,40.49,0,0,0-5.18-12.83.26.26,0,0,1,.08-.35.25.25,0,0,1,.34.08,40.81,40.81,0,0,1,5.25,13,.25.25,0,0,1-.19.3Z" style="fill:#263238"></path><path d="M67.62,458h-.08a.25.25,0,0,1-.15-.32,27.91,27.91,0,0,1,4.84-8.43.25.25,0,0,1,.35,0,.24.24,0,0,1,0,.35,27.45,27.45,0,0,0-4.75,8.28A.26.26,0,0,1,67.62,458Z" style="fill:#263238"></path></g></svg>
